<svg width="24" height="24" viewBox="0 0 24 24" fill="none" xmlns="http://www.w3.org/2000/svg">
<path d="M5 21C4.45 21 3.979 20.804 3.587 20.412C3.195 20.02 2.99934 19.5493 3 19V5C3 4.45 3.196 3.979 3.588 3.587C3.98 3.195 4.45067 2.99934 5 3H19C19.55 3 20.021 3.196 20.413 3.588C20.805 3.98 21.0007 4.45067 21 5V11.7C20.6833 11.55 20.3583 11.4207 20.025 11.312C19.6917 11.2033 19.35 11.1243 19 11.075V5H5V19H11.05C11.1 19.3667 11.1793 19.7167 11.288 20.05C11.3967 20.3833 11.5257 20.7 11.675 21H5ZM5 18V19V5V11.075V11V18ZM7 16C7 16.2833 7.096 16.521 7.288 16.713C7.48 16.905 7.71734 17.0007 8 17H11.075C11.125 16.65 11.2043 16.3083 11.313 15.975C11.4217 15.6417 11.5423 15.3167 11.675 15H8C7.71667 15 7.479 15.096 7.287 15.288C7.095 15.48 6.99934 15.7173 7 16ZM7 12C7 12.2833 7.096 12.521 7.288 12.713C7.48 12.905 7.71734 13.0007 8 13H13.1C13.6333 12.5 14.2293 12.0833 14.888 11.75C15.5467 11.4167 16.2507 11.1917 17 11.075C16.85 11.0417 16.6833 11.0207 16.5 11.012C16.3167 11.0033 16.15 10.9993 16 11H8C7.71667 11 7.479 11.096 7.287 11.288C7.095 11.48 6.99934 11.7173 7 12ZM7 8C7 8.28334 7.096 8.521 7.288 8.713C7.48 8.905 7.71734 9.00067 8 9H16C16.2833 9 16.521 8.904 16.713 8.712C16.905 8.52 17.0007 8.28267 17 8C17 7.71667 16.904 7.479 16.712 7.287C16.52 7.095 16.2827 6.99934 16 7H8C7.71667 7 7.479 7.096 7.287 7.288C7.095 7.48 6.99934 7.71734 7 8ZM18 23C16.6167 23 15.4373 22.5123 14.462 21.537C13.4867 20.5617 12.9993 19.3827 13 18C13 16.6167 13.4877 15.4373 14.463 14.462C15.4383 13.4867 16.6173 12.9993 18 13C19.3833 13 20.5627 13.4877 21.538 14.463C22.5133 15.4383 23.0007 16.6173 23 18C23 19.3833 22.5123 20.5627 21.537 21.538C20.5617 22.5133 19.3827 23.0007 18 23ZM17.5 18.5V20.5C17.5 20.6333 17.55 20.75 17.65 20.85C17.75 20.95 17.8667 21 18 21C18.1333 21 18.25 20.95 18.35 20.85C18.45 20.75 18.5 20.6333 18.5 20.5V18.5H20.5C20.6333 18.5 20.75 18.45 20.85 18.35C20.95 18.25 21 18.1333 21 18C21 17.8667 20.95 17.75 20.85 17.65C20.75 17.55 20.6333 17.5 20.5 17.5H18.5V15.5C18.5 15.3667 18.45 15.25 18.35 15.15C18.25 15.05 18.1333 15 18 15C17.8667 15 17.75 15.05 17.65 15.15C17.55 15.25 17.5 15.3667 17.5 15.5V17.5H15.5C15.3667 17.5 15.25 17.55 15.15 17.65C15.05 17.75 15 17.8667 15 18C15 18.1333 15.05 18.25 15.15 18.35C15.25 18.45 15.3667 18.5 15.5 18.5H17.5Z" fill="#264653"/>
</svg>
