<svg width="25" height="25" viewBox="0 0 25 25" fill="none" xmlns="http://www.w3.org/2000/svg">
<g id="calendar">
<path id="Vector" d="M19.6943 3.87354H4.69434C3.4517 3.87354 2.44434 4.88089 2.44434 6.12354V19.6235C2.44434 20.8662 3.4517 21.8735 4.69434 21.8735H19.6943C20.937 21.8735 21.9443 20.8662 21.9443 19.6235V6.12354C21.9443 4.88089 20.937 3.87354 19.6943 3.87354Z" stroke="black" strokeWidth="1.00189" strokeLinejoin="round"/>
<path id="Vector_2" d="M14.0757 12.1349C14.7 12.1349 15.2062 11.6288 15.2062 11.0044C15.2062 10.3801 14.7 9.87402 14.0757 9.87402C13.4514 9.87402 12.9453 10.3801 12.9453 11.0044C12.9453 11.6288 13.4514 12.1349 14.0757 12.1349Z" fill="black"/>
<path id="Vector_3" d="M17.8238 12.1349C18.4481 12.1349 18.9542 11.6288 18.9542 11.0044C18.9542 10.3801 18.4481 9.87402 17.8238 9.87402C17.1995 9.87402 16.6934 10.3801 16.6934 11.0044C16.6934 11.6288 17.1995 12.1349 17.8238 12.1349Z" fill="black"/>
<path id="Vector_4" d="M14.0757 15.8849C14.7 15.8849 15.2062 15.3788 15.2062 14.7544C15.2062 14.1301 14.7 13.624 14.0757 13.624C13.4514 13.624 12.9453 14.1301 12.9453 14.7544C12.9453 15.3788 13.4514 15.8849 14.0757 15.8849Z" fill="black"/>
<path id="Vector_5" d="M17.8238 15.8849C18.4481 15.8849 18.9542 15.3788 18.9542 14.7544C18.9542 14.1301 18.4481 13.624 17.8238 13.624C17.1995 13.624 16.6934 14.1301 16.6934 14.7544C16.6934 15.3788 17.1995 15.8849 17.8238 15.8849Z" fill="black"/>
<path id="Vector_6" d="M6.57573 15.8849C7.20005 15.8849 7.70616 15.3788 7.70616 14.7544C7.70616 14.1301 7.20005 13.624 6.57573 13.624C5.95142 13.624 5.44531 14.1301 5.44531 14.7544C5.44531 15.3788 5.95142 15.8849 6.57573 15.8849Z" fill="black"/>
<path id="Vector_7" d="M10.3238 15.8849C10.9481 15.8849 11.4542 15.3788 11.4542 14.7544C11.4542 14.1301 10.9481 13.624 10.3238 13.624C9.69947 13.624 9.19336 14.1301 9.19336 14.7544C9.19336 15.3788 9.69947 15.8849 10.3238 15.8849Z" fill="black"/>
<path id="Vector_8" d="M6.57573 19.6349C7.20005 19.6349 7.70616 19.1288 7.70616 18.5044C7.70616 17.8801 7.20005 17.374 6.57573 17.374C5.95142 17.374 5.44531 17.8801 5.44531 18.5044C5.44531 19.1288 5.95142 19.6349 6.57573 19.6349Z" fill="black"/>
<path id="Vector_9" d="M10.3238 19.6349C10.9481 19.6349 11.4542 19.1288 11.4542 18.5044C11.4542 17.8801 10.9481 17.374 10.3238 17.374C9.69947 17.374 9.19336 17.8801 9.19336 18.5044C9.19336 19.1288 9.69947 19.6349 10.3238 19.6349Z" fill="black"/>
<path id="Vector_10" d="M14.0757 19.6349C14.7 19.6349 15.2062 19.1288 15.2062 18.5044C15.2062 17.8801 14.7 17.374 14.0757 17.374C13.4514 17.374 12.9453 17.8801 12.9453 18.5044C12.9453 19.1288 13.4514 19.6349 14.0757 19.6349Z" fill="black"/>
<path id="Vector_11" d="M6.19434 2.37402V3.88752" stroke="black" strokeWidth="1.00189" strokeLinecap="round" strokeLinejoin="round"/>
<path id="Vector_12" d="M18.1943 2.37402V3.88752" stroke="black" strokeWidth="1.00189" strokeLinecap="round" strokeLinejoin="round"/>
<path id="Vector_13" d="M21.9443 7.62402H2.44434" stroke="black" strokeWidth="1.00189" strokeLinejoin="round"/>
</g>
</svg>
