<svg width="25" height="25" viewBox="0 0 25 25" fill="none" xmlns="http://www.w3.org/2000/svg">
<path d="M19.3267 3.15924H5.07666C4.38108 3.16122 3.71455 3.43842 3.22269 3.93027C2.73084 4.42213 2.45364 5.08866 2.45166 5.78424V14.7842C2.45364 15.4798 2.73084 16.1464 3.22269 16.6382C3.71455 17.1301 4.38108 17.4073 5.07666 17.4092H6.95166V21.1592L11.3448 17.4964C11.4122 17.4401 11.4974 17.4092 11.5853 17.4092H19.3267C20.0222 17.4073 20.6888 17.1301 21.1806 16.6382C21.6725 16.1464 21.9497 15.4798 21.9517 14.7842V5.78424C21.9497 5.08866 21.6725 4.42213 21.1806 3.93027C20.6888 3.43842 20.0222 3.16122 19.3267 3.15924V3.15924Z" stroke="#264653" strokeWidth="1.00189" strokeLinejoin="round"/>
<path d="M7.70325 11.786C8.53229 11.786 9.20436 11.114 9.20436 10.2849C9.20436 9.45588 8.53229 8.78381 7.70325 8.78381C6.87422 8.78381 6.20215 9.45588 6.20215 10.2849C6.20215 11.114 6.87422 11.786 7.70325 11.786Z" fill="#264653"/>
<path d="M12.2028 11.786C13.0318 11.786 13.7039 11.114 13.7039 10.2849C13.7039 9.45588 13.0318 8.78381 12.2028 8.78381C11.3737 8.78381 10.7017 9.45588 10.7017 10.2849C10.7017 11.114 11.3737 11.786 12.2028 11.786Z" fill="#264653"/>
<path d="M16.7028 11.786C17.5318 11.786 18.2039 11.114 18.2039 10.2849C18.2039 9.45588 17.5318 8.78381 16.7028 8.78381C15.8737 8.78381 15.2017 9.45588 15.2017 10.2849C15.2017 11.114 15.8737 11.786 16.7028 11.786Z" fill="#264653"/>
</svg>
