<svg width="33" height="33" viewBox="0 0 33 33" fill="none" xmlns="http://www.w3.org/2000/svg">
<g id="close-circle">
<path id="Vector" d="M16.1604 3.22119C8.99228 3.22119 3.1604 9.05307 3.1604 16.2212C3.1604 23.3893 8.99228 29.2212 16.1604 29.2212C23.3285 29.2212 29.1604 23.3893 29.1604 16.2212C29.1604 9.05307 23.3285 3.22119 16.1604 3.22119ZM20.8673 19.5143C20.964 19.6063 21.0414 19.7166 21.0949 19.8389C21.1483 19.9613 21.1767 20.093 21.1784 20.2265C21.1801 20.36 21.1551 20.4924 21.1048 20.6161C21.0545 20.7397 20.98 20.852 20.8856 20.9464C20.7912 21.0408 20.6789 21.1153 20.5553 21.1656C20.4316 21.2159 20.2992 21.2409 20.1657 21.2392C20.0322 21.2375 19.9005 21.2091 19.7782 21.1557C19.6558 21.1022 19.5455 21.0248 19.4535 20.9281L16.1604 17.6356L12.8673 20.9281C12.6782 21.1077 12.4265 21.2064 12.1657 21.203C11.9049 21.1997 11.6558 21.0946 11.4714 20.9102C11.287 20.7258 11.1819 20.4767 11.1786 20.2159C11.1752 19.9551 11.2739 19.7034 11.4535 19.5143L14.746 16.2212L11.4535 12.9281C11.2739 12.739 11.1752 12.4873 11.1786 12.2265C11.1819 11.9657 11.287 11.7166 11.4714 11.5322C11.6558 11.3478 11.9049 11.2427 12.1657 11.2394C12.4265 11.236 12.6782 11.3347 12.8673 11.5143L16.1604 14.8068L19.4535 11.5143C19.6426 11.3347 19.8943 11.236 20.1551 11.2394C20.4159 11.2427 20.665 11.3478 20.8494 11.5322C21.0338 11.7166 21.1389 11.9657 21.1422 12.2265C21.1456 12.4873 21.0469 12.739 20.8673 12.9281L17.5748 16.2212L20.8673 19.5143Z" fill="#030229"/>
</g>
</svg>
