<svg width="18" height="19" viewBox="0 0 18 19" fill="none" xmlns="http://www.w3.org/2000/svg">
<path d="M10.8477 7.31783C10.8477 7.82126 10.4039 8.23315 9.8615 8.23315H0.98615C0.443768 8.23315 0 7.82126 0 7.31783C0 6.8144 0.443768 6.4025 0.98615 6.4025H9.8615C10.4039 6.4025 10.8477 6.8144 10.8477 7.31783ZM0 3.65653C0 4.15996 0.443768 4.57186 0.98615 4.57186H9.8615C10.4039 4.57186 10.8477 4.15996 10.8477 3.65653C10.8477 3.15311 10.4039 2.74121 9.8615 2.74121H0.98615C0.443768 2.74121 0 3.15311 0 3.65653ZM6.90305 10.9791C6.90305 10.4757 6.45928 10.0638 5.9169 10.0638H0.98615C0.443768 10.0638 0 10.4757 0 10.9791C0 11.4825 0.443768 11.8944 0.98615 11.8944H5.9169C6.45928 11.8944 6.90305 11.4825 6.90305 10.9791ZM14.8021 9.02948L15.5023 8.3796C15.5935 8.29475 15.7019 8.22743 15.8212 8.1815C15.9405 8.13556 16.0684 8.11192 16.1975 8.11192C16.3267 8.11192 16.4546 8.13556 16.5739 8.1815C16.6932 8.22743 16.8015 8.29475 16.8928 8.3796L17.5929 9.02948C17.9775 9.38646 17.9775 9.96311 17.5929 10.3201L16.8928 10.97L14.8021 9.02948ZM14.1019 9.67936L9.01341 14.4024C8.92466 14.4848 8.87535 14.5946 8.87535 14.7228V16.0134C8.87535 16.2697 9.09231 16.4711 9.36843 16.4711H10.7589C10.8871 16.4711 11.0153 16.4253 11.1041 16.3338L16.1926 11.6107L14.1019 9.67936Z" fill="white"/>
</svg>
