<svg width="22" height="20" viewBox="0 0 22 20" fill="none" xmlns="http://www.w3.org/2000/svg">
<path d="M10.835 19.5C5.21334 19.5 0.639648 15.1261 0.639648 9.75C0.639648 4.37391 5.21334 0 10.835 0C16.4566 0 21.0303 4.37391 21.0303 9.75C21.0303 15.1261 16.4566 19.5 10.835 19.5ZM10.835 1.5C6.08043 1.5 2.20816 5.20313 2.20816 9.75C2.20816 14.2969 6.08043 18 10.835 18C15.5895 18 19.4618 14.2992 19.4618 9.75C19.4618 5.20078 15.592 1.5 10.835 1.5Z" fill="#264653"/>
<path d="M14.1541 11.439C13.3011 11.439 12.477 11.0771 11.8333 10.4202C11.1967 9.75982 10.816 8.91062 10.7548 8.01427C10.6828 7.04382 10.9941 6.15072 11.6314 5.50047C12.2687 4.85023 13.1594 4.50049 14.1541 4.50049C15.1414 4.50049 16.0351 4.85773 16.6704 5.50657C17.3058 6.15541 17.6249 7.05366 17.5529 8.01521C17.4905 8.91102 17.11 9.75957 16.4743 10.4202C15.8302 11.0771 15.0066 11.439 14.1541 11.439Z" fill="#264653"/>
<path d="M6.31865 11.5967C4.85973 11.5967 3.57679 10.307 3.45914 8.72146C3.39884 7.90947 3.66258 7.15889 4.20282 6.60803C4.74305 6.05717 5.4882 5.76416 6.31816 5.76416C7.14812 5.76416 7.89278 6.06608 8.42958 6.61459C8.96639 7.16311 9.23846 7.91884 9.17718 8.72427C9.05757 10.3075 7.77513 11.5967 6.31865 11.5967Z" fill="#264653"/>
<path d="M18.893 14.4041C18.8151 14.1837 18.6254 13.9489 18.245 13.7263C17.0951 13.0545 15.6805 12.6992 14.1532 12.6992C12.6548 12.6992 11.2009 13.0695 10.0589 13.7422C8.7722 14.5002 7.90756 15.6055 7.55906 16.9381C7.47671 17.2517 7.35662 17.8353 7.48504 18.162C9.54591 18.9115 11.8164 18.9459 13.9011 18.2592C15.9857 17.5725 17.7524 16.2083 18.8935 14.4041H18.893Z" fill="#264653"/>
<path d="M6.30812 16.5645C6.65471 15.242 7.39251 14.1393 8.5372 13.2476C8.59131 13.2049 8.63246 13.1492 8.65635 13.0861C8.68025 13.023 8.68601 12.9549 8.67304 12.889C8.66007 12.8231 8.62885 12.7617 8.58262 12.7112C8.5364 12.6607 8.47686 12.6231 8.41022 12.6021C7.82195 12.4225 7.15033 12.3264 6.31743 12.3264C5.1497 12.3264 3.90991 12.6288 2.977 13.1783C2.71228 13.3344 2.45246 13.3944 2.25244 13.4478C3.05547 15.1451 4.38719 16.5638 6.06545 17.5097L6.1532 17.5031C6.17239 17.1861 6.22428 16.8717 6.30812 16.5645Z" fill="#264653"/>
</svg>
