<svg width="24" height="24" viewBox="0 0 24 24" fill="none" xmlns="http://www.w3.org/2000/svg">
<g id="hardware-chip">
<path id="Vector" d="M18 3.75H6C4.75736 3.75 3.75 4.75736 3.75 6V18C3.75 19.2426 4.75736 20.25 6 20.25H18C19.2426 20.25 20.25 19.2426 20.25 18V6C20.25 4.75736 19.2426 3.75 18 3.75Z" stroke="black" strokeWidth="1.00189" strokeLinejoin="round"/>
<path id="Vector_2" d="M16.501 6.74951H7.50098C7.08676 6.74951 6.75098 7.0853 6.75098 7.49951V16.4995C6.75098 16.9137 7.08676 17.2495 7.50098 17.2495H16.501C16.9152 17.2495 17.251 16.9137 17.251 16.4995V7.49951C17.251 7.0853 16.9152 6.74951 16.501 6.74951Z" stroke="black" strokeWidth="1.00189" strokeLinejoin="round"/>
<path id="Vector_3" d="M12 3.76301V2.24951" stroke="black" strokeWidth="1.00189" strokeLinecap="round" strokeLinejoin="round"/>
<path id="Vector_4" d="M15.751 3.76301V2.24951" stroke="black" strokeWidth="1.00189" strokeLinecap="round" strokeLinejoin="round"/>
<path id="Vector_5" d="M8.25 3.76301V2.24951" stroke="black" strokeWidth="1.00189" strokeLinecap="round" strokeLinejoin="round"/>
<path id="Vector_6" d="M12 21.7625V20.249" stroke="black" strokeWidth="1.00189" strokeLinecap="round" strokeLinejoin="round"/>
<path id="Vector_7" d="M15.751 21.7625V20.249" stroke="black" strokeWidth="1.00189" strokeLinecap="round" strokeLinejoin="round"/>
<path id="Vector_8" d="M8.25 21.7625V20.249" stroke="black" strokeWidth="1.00189" strokeLinecap="round" strokeLinejoin="round"/>
<path id="Vector_9" d="M20.25 11.9995H21.7635" stroke="black" strokeWidth="1.00189" strokeLinecap="round" strokeLinejoin="round"/>
<path id="Vector_10" d="M20.25 15.75H21.7635" stroke="black" strokeWidth="1.00189" strokeLinecap="round" strokeLinejoin="round"/>
<path id="Vector_11" d="M20.25 8.25H21.7635" stroke="black" strokeWidth="1.00189" strokeLinecap="round" strokeLinejoin="round"/>
<path id="Vector_12" d="M2.25 11.9995H3.76349" stroke="black" strokeWidth="1.00189" strokeLinecap="round" strokeLinejoin="round"/>
<path id="Vector_13" d="M2.25 15.75H3.76349" stroke="black" strokeWidth="1.00189" strokeLinecap="round" strokeLinejoin="round"/>
<path id="Vector_14" d="M2.25 8.25H3.76349" stroke="black" strokeWidth="1.00189" strokeLinecap="round" strokeLinejoin="round"/>
</g>
</svg>
