<svg width="24" height="24" viewBox="0 0 24 24" fill="none" xmlns="http://www.w3.org/2000/svg">
<g id="heart-circle">
<path id="Vector" d="M21.001 12.001C21.001 7.03223 16.9697 3.00098 12.001 3.00098C7.03223 3.00098 3.00098 7.03223 3.00098 12.001C3.00098 16.9697 7.03223 21.001 12.001 21.001C16.9697 21.001 21.001 16.9697 21.001 12.001Z" stroke="black" strokeWidth="1.00189" strokeMiterlimit="10"/>
<path id="Vector_2" d="M12 16.8777C11.8495 16.8776 11.7024 16.8322 11.5781 16.7474C9.73561 15.4966 8.93769 14.6377 8.49794 14.1028C7.5603 12.9603 7.11118 11.7868 7.1243 10.5163C7.13884 9.06019 8.30666 7.87549 9.72764 7.87549C10.684 7.87549 11.3685 8.37384 11.7951 8.83234C11.8214 8.86015 11.8531 8.8823 11.8883 8.89744C11.9234 8.91258 11.9613 8.92039 11.9995 8.92039C12.0378 8.92039 12.0757 8.91258 12.1108 8.89744C12.146 8.8823 12.1776 8.86015 12.2039 8.83234C12.631 8.37384 13.315 7.87549 14.2714 7.87549C15.6924 7.87549 16.8602 9.06019 16.8748 10.5163C16.8879 11.7868 16.4383 12.9603 15.5011 14.1028C15.0614 14.6391 14.2634 15.4966 12.421 16.7474C12.2969 16.832 12.1502 16.8774 12 16.8777Z" fill="black"/>
</g>
</svg>
