<svg width="25" height="25" viewBox="0 0 25 25" fill="none" xmlns="http://www.w3.org/2000/svg">
<g id="home">
<path id="Vector" d="M3.92578 10.0703V21.1328C3.92578 21.3317 4.0048 21.5225 4.14545 21.6631C4.2861 21.8038 4.47687 21.8828 4.67578 21.8828H9.17578V15.5078C9.17578 15.2094 9.29431 14.9233 9.50529 14.7123C9.71627 14.5013 10.0024 14.3828 10.3008 14.3828H14.0508C14.3492 14.3828 14.6353 14.5013 14.8463 14.7123C15.0573 14.9233 15.1758 15.2094 15.1758 15.5078V21.8828H19.6758C19.8747 21.8828 20.0655 21.8038 20.2061 21.6631C20.3468 21.5225 20.4258 21.3317 20.4258 21.1328V10.0703" stroke="white" strokeWidth="1.00189" strokeLinecap="round" strokeLinejoin="round"/>
<path id="Vector_2" d="M22.6768 12.1325L12.6872 2.56998C12.4529 2.32248 11.9049 2.31967 11.6663 2.56998L1.67676 12.1325" stroke="white" strokeWidth="1.00189" strokeLinecap="round" strokeLinejoin="round"/>
<path id="Vector_3" d="M18.9267 8.52564V3.13281H16.6758V6.36851" stroke="white" strokeWidth="1.00189" strokeLinecap="round" strokeLinejoin="round"/>
</g>
</svg>
