<svg width="20" height="19" viewBox="0 0 20 19" fill="none" xmlns="http://www.w3.org/2000/svg">
<path d="M9.51943 -0.324219L9.0165 3.69938L6.66185 1.96191L8.12494 4.63664L5.58744 4.3166L7.75521 5.67965L5.64982 5.19105L5.56244 5.52027L4.17924 10.7282L4.17807 10.7336C4.00424 11.4824 4.18701 12.1622 4.57291 12.6588C4.88623 13.062 5.32057 13.3511 5.79791 13.5211L4.97896 17.0497C4.56002 16.9593 4.21588 16.9021 3.94436 16.8997C3.50393 16.8957 3.25104 17.0343 3.16553 17.4028L7.13643 18.3242C7.27467 17.7286 6.75396 17.4797 5.66389 17.2086L6.48275 13.68C6.98611 13.7375 7.50346 13.6692 7.96225 13.4453C8.52748 13.1694 8.99096 12.6397 9.16471 11.8909L9.16596 11.8854L10.0749 7.31887L10.7984 10.8339L10.7997 10.8393C10.9783 11.587 11.4453 12.1137 12.0123 12.3859C12.4726 12.6069 12.9903 12.6718 13.4933 12.6109L14.3352 16.1342C13.2469 16.4124 12.7278 16.6646 12.8699 17.2593L16.8347 16.312C16.7468 15.944 16.493 15.8071 16.0526 15.814C15.7811 15.8182 15.4373 15.8777 15.019 15.9707L14.1771 12.4475C14.6533 12.2745 15.0857 11.9825 15.3963 11.5773C15.779 11.0782 15.9574 10.3972 15.7787 9.64957L15.7774 9.64414L14.2707 4.11672L12.7431 4.4818L14.686 3.19641L11.8513 3.97359L13.0858 0.704571L10.6854 3.51645L9.51943 -0.324219ZM13.7716 4.95891L14.3745 7.17098L10.6856 6.79887L10.4694 5.74793L13.7716 4.95891ZM6.15455 6.02992L9.46182 6.79742L9.36904 7.26336L5.72166 7.65984L6.15455 6.02992ZM10.8342 7.52039L11.4703 7.58457C11.6081 8.41598 11.994 10.5322 12.4256 10.9383C12.8515 11.3391 14.1772 11.0397 14.1772 11.0397C12.7369 11.1518 11.9151 8.93414 11.5167 7.58922L14.5726 7.8975L15.0953 9.815C15.2285 10.3746 15.1044 10.8025 14.8384 11.1495C14.572 11.497 14.1439 11.7532 13.6764 11.865C13.209 11.9767 12.7112 11.9417 12.3166 11.7522C11.9225 11.563 11.6185 11.2374 11.4842 10.6784L10.8342 7.52039ZM9.22521 7.98625L8.4792 11.7342C8.34861 12.2941 8.04666 12.6218 7.65381 12.8135C7.26037 13.0055 6.76295 13.0439 6.29478 12.9352C5.82658 12.8266 5.39678 12.5731 5.12814 12.2274C4.8599 11.8822 4.73307 11.4551 4.86252 10.8948L5.52826 8.38809L6.28713 8.30563C5.97674 9.20367 5.40096 11 5.56893 11.5208C5.74842 12.0774 7.05381 12.4553 7.05381 12.4553C5.67705 11.6498 6.02869 9.61121 6.34412 8.29945L9.22521 7.98625Z" fill="black"/>
</svg>
