<svg width="13" height="14" viewBox="0 0 13 14" fill="none" xmlns="http://www.w3.org/2000/svg">
<path d="M6.18614 0C5.69728 0 5.30233 0.384824 5.30233 0.861145V1.37783C3.28614 1.77611 1.76709 3.51455 1.76709 5.59744V6.10337C1.76709 7.36817 1.28928 8.58992 0.427567 9.53718L0.223186 9.76054C-0.00881439 10.0135 -0.0640525 10.3768 0.0768047 10.6863C0.217662 10.9957 0.535281 11.1949 0.883281 11.1949H11.489C11.837 11.1949 12.1519 10.9957 12.2955 10.6863C12.4391 10.3768 12.3811 10.0135 12.1491 9.76054L11.9447 9.53718C11.083 8.58992 10.6052 7.37086 10.6052 6.10337V5.59744C10.6052 3.51455 9.08614 1.77611 7.06995 1.37783V0.861145C7.06995 0.384824 6.675 0 6.18614 0ZM7.43728 13.2751C7.76871 12.9522 7.95376 12.5135 7.95376 12.056H6.18614H4.41852C4.41852 12.5135 4.60357 12.9522 4.935 13.2751C5.26643 13.598 5.71662 13.7783 6.18614 13.7783C6.65566 13.7783 7.10585 13.598 7.43728 13.2751Z" fill="black"/>
</svg>
