<svg width="19" height="14" viewBox="0 0 19 14" fill="none" xmlns="http://www.w3.org/2000/svg">
<path d="M2.1375 1.75C2.1375 1.28587 2.31266 0.840752 2.62444 0.512563C2.93621 0.184374 3.35908 0 3.8 0C4.24092 0 4.66379 0.184374 4.97556 0.512563C5.28734 0.840752 5.4625 1.28587 5.4625 1.75C5.4625 2.21413 5.28734 2.65925 4.97556 2.98744C4.66379 3.31563 4.24092 3.5 3.8 3.5C3.35908 3.5 2.93621 3.31563 2.62444 2.98744C2.31266 2.65925 2.1375 2.21413 2.1375 1.75ZM1.9 8C1.9 7.54838 1.45148 7.43697 1.42792 7.88798C1.42598 7.92508 1.425 7.96243 1.425 8C1.425 8.03757 1.42598 8.07492 1.42792 8.11202C1.45148 8.56303 1.9 8.45162 1.9 8ZM6.18687 5.13605C6.18687 5.13698 6.18649 5.13786 6.18582 5.13849C5.30471 5.96034 4.75 7.16303 4.75 8.5C4.75 9.32689 4.96201 10.1017 5.33152 10.7671C5.54304 11.1479 5.7 11.5643 5.7 12C5.7 12.5531 5.27547 13 4.75 13H2.85C2.32453 13 1.9 12.5531 1.9 12C1.9 11.4866 1.5937 11.0339 1.20666 10.6966C0.470106 10.0548 0 9.08597 0 8C0 6.06562 1.48734 4.5 3.325 4.5H4.275C4.98691 4.5 5.64547 4.73399 6.18553 5.13338C6.18637 5.134 6.18687 5.135 6.18687 5.13605ZM13.3 12C13.3 11.5643 13.457 11.1479 13.6685 10.7671C14.038 10.1017 14.25 9.32689 14.25 8.5C14.25 7.90752 14.1411 7.3414 13.9431 6.82284C13.5627 5.8266 13.6586 4.5 14.725 4.5H15.675C17.5127 4.5 19 6.06562 19 8C19 9.08597 18.5299 10.0548 17.7933 10.6966C17.4063 11.0339 17.1 11.4866 17.1 12C17.1 12.5531 16.6755 13 16.15 13H14.25C13.7245 13 13.3 12.5531 13.3 12ZM13.5375 1.75C13.5375 1.28587 13.7127 0.840752 14.0244 0.512563C14.3362 0.184374 14.7591 0 15.2 0C15.6409 0 16.0638 0.184374 16.3756 0.512563C16.6873 0.840752 16.8625 1.28587 16.8625 1.75C16.8625 2.21413 16.6873 2.65925 16.3756 2.98744C16.0638 3.31563 15.6409 3.5 15.2 3.5C14.7591 3.5 14.3362 3.31563 14.0244 2.98744C13.7127 2.65925 13.5375 2.21413 13.5375 1.75ZM17.1 6.67812V7.8913C17.1 8.37895 17.575 8.49077 17.575 8.00313C17.575 7.49802 17.3977 7.03336 17.102 6.68363C17.1007 6.68209 17.1 6.68014 17.1 6.67812ZM9.5 0C10.0039 0 10.4872 0.210714 10.8435 0.585786C11.1998 0.960859 11.4 1.46957 11.4 2C11.4 2.53043 11.1998 3.03914 10.8435 3.41421C10.4872 3.78929 10.0039 4 9.5 4C8.99609 4 8.51282 3.78929 8.1565 3.41421C7.80018 3.03914 7.6 2.53043 7.6 2C7.6 1.46957 7.80018 0.960859 8.1565 0.585786C8.51282 0.210714 8.99609 0 9.5 0ZM7.125 8.5C7.125 8.53752 7.12598 8.57479 7.12791 8.6118C7.15135 9.0608 7.6 8.94961 7.6 8.5C7.6 8.05039 7.15135 7.9392 7.12791 8.3882C7.12598 8.42521 7.125 8.46248 7.125 8.5ZM11.4 7.17813V8.3913C11.4 8.87895 11.875 8.99077 11.875 8.50313C11.875 7.99802 11.6977 7.53336 11.402 7.18363C11.4007 7.18209 11.4 7.18014 11.4 7.17813ZM13.3 8.5C13.3 9.40128 12.9762 10.2219 12.445 10.8418C11.9116 11.4644 11.4 12.1802 11.4 13C11.4 13.5531 10.9755 14 10.45 14H8.55C8.02453 14 7.6 13.5531 7.6 13C7.6 12.1802 7.08842 11.4644 6.55498 10.8418C6.0238 10.2219 5.7 9.40128 5.7 8.5C5.7 6.56562 7.18734 5 9.025 5H9.975C11.8127 5 13.3 6.56562 13.3 8.5Z" fill="black"/>
</svg>
