<svg width="8" height="16" viewBox="0 0 8 16" fill="none" xmlns="http://www.w3.org/2000/svg">
<path d="M0.407342 0.915625C0.446667 0.4 0.837112 0 1.3034 0H6.6966C7.16289 0 7.55333 0.4 7.59266 0.915625L7.98591 6.17812C8.15445 8.42813 6.79211 10.4031 4.89887 10.8844V14H6.24717C6.74435 14 7.14603 14.4469 7.14603 15C7.14603 15.5531 6.74435 16 6.24717 16H4H1.75283C1.25565 16 0.853966 15.5531 0.853966 15C0.853966 14.4469 1.25565 14 1.75283 14H3.10113V10.8875C1.20789 10.4062 -0.15445 8.43125 0.0140874 6.18125L0.407342 0.91875V0.915625ZM1.98036 4H6.01964L5.87077 2H2.12923L1.98036 4Z" fill="black"/>
</svg>
