<svg width="16" height="12" viewBox="0 0 16 12" fill="none" xmlns="http://www.w3.org/2000/svg">
<path d="M15.3552 2.04563L12.1195 0.280625C12.0829 0.260615 12.0419 0.250087 12.0002 0.25H10.0002C9.93385 0.25 9.87026 0.276339 9.82338 0.323223C9.77649 0.370107 9.75015 0.433696 9.75015 0.5C9.75015 0.964129 9.56578 1.40925 9.23759 1.73744C8.9094 2.06563 8.46428 2.25 8.00015 2.25C7.53602 2.25 7.0909 2.06563 6.76272 1.73744C6.43453 1.40925 6.25015 0.964129 6.25015 0.5C6.25015 0.433696 6.22381 0.370107 6.17693 0.323223C6.13005 0.276339 6.06646 0.25 6.00015 0.25H4.00015C3.95859 0.250382 3.91777 0.261123 3.8814 0.28125L0.645152 2.04563C0.472149 2.13602 0.342078 2.29136 0.28349 2.47755C0.224901 2.66375 0.242582 2.86558 0.332652 3.03875L1.53765 5.33938C1.60384 5.46406 1.7029 5.56825 1.8241 5.64064C1.94529 5.71302 2.08399 5.75084 2.22515 5.75H3.75015V11C3.75015 11.1989 3.82917 11.3897 3.96982 11.5303C4.11047 11.671 4.30124 11.75 4.50015 11.75H11.5002C11.6991 11.75 11.8898 11.671 12.0305 11.5303C12.1711 11.3897 12.2502 11.1989 12.2502 11V5.75H13.7708C13.9119 5.75084 14.0506 5.71302 14.1718 5.64064C14.293 5.56825 14.3921 5.46406 14.4583 5.33938L15.6633 3.03875C15.7537 2.86611 15.772 2.66469 15.7143 2.47857C15.6565 2.29245 15.5274 2.13678 15.3552 2.04563ZM2.22953 5.25C2.17884 5.25123 2.12877 5.23861 2.08472 5.2135C2.04067 5.18839 2.0043 5.15174 1.97953 5.1075L0.777652 2.80688C0.763133 2.7788 0.754378 2.74811 0.751904 2.7166C0.74943 2.68509 0.753286 2.65341 0.763246 2.62341C0.773205 2.59342 0.789067 2.56572 0.809896 2.54195C0.830725 2.51818 0.8561 2.49881 0.884527 2.485L3.75015 0.92125V5.25H2.22953ZM11.7502 11C11.7502 11.0663 11.7238 11.1299 11.6769 11.1768C11.63 11.2237 11.5665 11.25 11.5002 11.25H4.50015C4.43385 11.25 4.37026 11.2237 4.32338 11.1768C4.27649 11.1299 4.25015 11.0663 4.25015 11V0.75H5.7639C5.82503 1.30035 6.08695 1.80883 6.49954 2.17814C6.91213 2.54744 7.44642 2.75163 8.00015 2.75163C8.55389 2.75163 9.08817 2.54744 9.50076 2.17814C9.91336 1.80883 10.1753 1.30035 10.2364 0.75H11.7502V11ZM15.2227 2.80688L14.0183 5.1075C13.9935 5.15174 13.9571 5.18839 13.9131 5.2135C13.869 5.23861 13.819 5.25123 13.7683 5.25H12.2502V0.92125L15.1158 2.48375C15.1444 2.49756 15.1699 2.51697 15.1908 2.54083C15.2118 2.5647 15.2277 2.59253 15.2377 2.62267C15.2476 2.65282 15.2514 2.68465 15.2489 2.7163C15.2463 2.74794 15.2374 2.77874 15.2227 2.80688Z" fill="black"/>
</svg>
