<svg width="19" height="20" viewBox="0 0 19 20" fill="none" xmlns="http://www.w3.org/2000/svg">
<path d="M11.4503 7.75264C11.4503 8.27543 10.9819 8.70317 10.4094 8.70317H1.04094C0.468421 8.70317 0 8.27543 0 7.75264C0 7.22985 0.468421 6.80211 1.04094 6.80211H10.4094C10.9819 6.80211 11.4503 7.22985 11.4503 7.75264ZM0 3.95053C0 4.47332 0.468421 4.90106 1.04094 4.90106H10.4094C10.9819 4.90106 11.4503 4.47332 11.4503 3.95053C11.4503 3.42774 10.9819 3 10.4094 3H1.04094C0.468421 3 0 3.42774 0 3.95053ZM7.28655 11.5548C7.28655 11.032 6.81813 10.6042 6.24562 10.6042H1.04094C0.468421 10.6042 0 11.032 0 11.5548C0 12.0775 0.468421 12.5053 1.04094 12.5053H6.24562C6.81813 12.5053 7.28655 12.0775 7.28655 11.5548ZM15.6245 9.53013L16.3635 8.85525C16.4598 8.76714 16.5742 8.69723 16.7001 8.64953C16.8261 8.60183 16.961 8.57728 17.0974 8.57728C17.2337 8.57728 17.3687 8.60183 17.4946 8.64953C17.6205 8.69723 17.7349 8.76714 17.8312 8.85525L18.5703 9.53013C18.9763 9.90083 18.9763 10.4997 18.5703 10.8704L17.8312 11.5452L15.6245 9.53013ZM14.8854 10.205L9.51416 15.1097C9.42047 15.1953 9.36843 15.3093 9.36843 15.4424V16.7827C9.36843 17.0488 9.59743 17.2579 9.88889 17.2579H11.3566C11.4919 17.2579 11.6273 17.2104 11.7209 17.1153L17.0922 12.2106L14.8854 10.205Z" fill="#030229"/>
</svg>
