<svg width="106" height="122" viewBox="0 0 106 122" fill="none" xmlns="http://www.w3.org/2000/svg">
<g clip-path="url(#clip0_769_22929)">
<path fill-rule="evenodd" clipRule="evenodd" d="M53.3893 117.282C79.6156 117.282 100.98 102.489 101.969 83.9941H4.80945C5.79888 102.489 27.1735 117.282 53.3893 117.282Z" fill="#2A9D8F"/>
<path fill-rule="evenodd" clipRule="evenodd" d="M13.7443 83.0704H103.337C103.584 83.0705 103.82 83.1674 103.995 83.3402C104.171 83.513 104.271 83.7478 104.274 83.9937C104.274 84.4962 103.851 84.9068 103.337 84.9068H13.7443C13.2289 84.9068 12.8077 84.4962 12.8077 83.9937C12.8108 83.7478 12.9109 83.513 13.0862 83.3402C13.2615 83.1674 13.4979 83.0705 13.7443 83.0704ZM8.80857 83.0704H3.44358C3.19709 83.0704 2.96053 83.1673 2.78513 83.3401C2.60974 83.5129 2.50964 83.7477 2.50653 83.9937C2.50653 84.4962 2.929 84.9068 3.44358 84.9068H8.809C9.32484 84.9068 9.74562 84.4962 9.74562 83.9937C9.74262 83.7478 9.64262 83.5129 9.46729 83.3401C9.29196 83.1673 9.05544 83.0704 8.809 83.0704H8.80857Z" fill="black"/>
<path fill-rule="evenodd" clipRule="evenodd" d="M2.04182 93.5953C3.16771 93.5953 4.08321 92.7028 4.08321 91.605C4.08321 90.5072 3.16771 89.6151 2.04182 89.6151C0.915924 89.6151 0 90.5072 0 91.605C0 92.7028 0.915502 93.5953 2.04182 93.5953Z" fill="#FFD65B"/>
<path fill-rule="evenodd" clipRule="evenodd" d="M103.958 79.7466C105.084 79.7466 106 78.8541 106 77.7568C106 76.6594 105.084 75.7664 103.958 75.7664C102.832 75.7664 101.916 76.6594 101.916 77.7568C101.916 78.8541 102.832 79.7466 103.958 79.7466Z" fill="#F69173"/>
<path fill-rule="evenodd" clipRule="evenodd" d="M32.8566 122C33.4139 122 33.8773 121.548 33.8773 121.005C33.8773 120.462 33.4126 120.01 32.8566 120.01C32.3007 120.01 31.8355 120.461 31.8355 121.005C31.8355 121.549 32.3002 122 32.8566 122Z" fill="#D1E287"/>
<path fill-rule="evenodd" clipRule="evenodd" d="M97.8327 109.331C98.959 109.331 99.8745 108.439 99.8745 107.341C99.8745 106.243 98.959 105.351 97.8327 105.351C96.7064 105.351 95.7913 106.243 95.7913 107.341C95.7913 108.439 96.7068 109.331 97.8327 109.331Z" fill="#8DD7F7"/>
<path fill-rule="evenodd" clipRule="evenodd" d="M90.7605 104.797C81.8463 112.419 68.4176 117.281 53.3893 117.281C38.3712 117.281 24.9319 112.419 16.0177 104.797C10.2721 99.196 17.0701 90.6922 24.3404 94.8672C34.9703 100.971 60.5862 115.773 90.7588 104.797H90.7605Z" fill="#264653"/>
<path fill-rule="evenodd" clipRule="evenodd" d="M18.6066 15.828C19.1748 15.828 19.6277 15.387 19.6277 14.833C19.6277 14.2892 19.1748 13.8482 18.6066 13.8482C18.0489 13.8482 17.5964 14.2892 17.5964 14.833C17.5969 14.9647 17.6235 15.0949 17.6746 15.2162C17.7257 15.3376 17.8003 15.4476 17.8942 15.5401C17.9881 15.6326 18.0993 15.7056 18.2216 15.755C18.3438 15.8044 18.4747 15.8292 18.6066 15.828Z" fill="#D1E287"/>
<path fill-rule="evenodd" clipRule="evenodd" d="M101.59 46.4077C102.148 46.4077 102.611 45.9667 102.611 45.4127C102.611 44.8689 102.146 44.4279 101.59 44.4279C101.034 44.4279 100.569 44.8689 100.569 45.4127C100.569 45.9667 101.034 46.4077 101.59 46.4077Z" fill="#FFD65B"/>
<path fill-rule="evenodd" clipRule="evenodd" d="M4.3147 47.6779C4.87279 47.6779 5.3354 47.2268 5.3354 46.683C5.3354 46.1391 4.87279 45.688 4.3147 45.688C3.75661 45.688 3.29401 46.1391 3.29401 46.683C3.29401 47.2268 3.75873 47.6779 4.3147 47.6779Z" fill="#F69173"/>
<path fill-rule="evenodd" clipRule="evenodd" d="M65.9444 3.97977C67.0707 3.97977 67.9862 3.08769 67.9862 1.98988C67.9862 0.892075 67.0707 0 65.9444 0C64.8181 0 63.903 0.892496 63.903 1.98988C63.903 3.08727 64.8185 3.97977 65.9444 3.97977Z" fill="#8DD7F7"/>
<path d="M52.1333 92.1248H19.2103V99.0413H52.1333V92.1248Z" fill="#DFF9FB"/>
<path d="M20.5099 93.5729H52.1337V92.1248H19.2103V99.0413H20.5099V93.5729Z" fill="#C7ECEE"/>
<path d="M86.7897 50.6252V61H59.0648V50.6252L68.306 47.1669V22.9587H77.5485V47.1669L86.7897 50.6252Z" fill="#DFF9FB"/>
<path d="M60.4801 52.1096L69.7209 48.6513V24.4431H77.5485V22.9587H68.306V47.1669L59.0648 50.6252V61H60.4801V52.1096Z" fill="#C7ECEE"/>
<path d="M86.7897 88.6665H59.0648V99.0413H86.7897V88.6665Z" fill="#DFF9FB"/>
<path d="M60.5667 90.2803H86.7897V88.6665H59.0648V99.0413H60.5667V90.2803Z" fill="#C7ECEE"/>
<path d="M86.7893 61V88.6665H59.0644V61H86.7893ZM74.66 81.75V78.293H71.1957V81.75H74.66ZM74.66 76.5624V73.1054H71.1957V76.5624H74.66ZM74.66 71.3769V67.9199H71.1957V71.3769H74.66Z" fill="#2A9D8F"/>
<path d="M60.6242 62.5346H86.7897V61H59.0648V88.6665H60.6242V62.5346Z" fill="#264653"/>
<path d="M52.1333 65.8415V92.1248H19.2103V65.8415H27.9226C28.3539 62.1463 31.6585 59.2707 35.6716 59.2707C39.6847 59.2707 42.9893 62.1463 43.421 65.8415H52.1333Z" fill="#264653"/>
<path d="M20.4811 67.2538H29.1934C29.6252 63.5586 32.9293 60.683 36.9428 60.683C38.9644 60.683 40.8059 61.4136 42.1912 62.6105C40.7971 60.5995 38.3991 59.2707 35.6716 59.2707C31.6581 59.2707 28.3539 62.1463 27.9226 65.8415H19.2103V92.1248H20.4811V67.2538Z" fill="#2A9D8F"/>
<path d="M52.1333 55.8145V65.8436H43.421C42.9893 62.1484 39.6851 59.2728 35.6716 59.2728C31.6581 59.2728 28.3539 62.1484 27.9226 65.8436H19.2103V55.8145L30.1841 52.3575V31.6046H41.1595V52.3541L52.1333 55.8145Z" fill="#DFF9FB"/>
<path d="M20.6831 57.3689L31.6573 53.9106V33.1606H41.16V31.6046H30.1841V52.3541L19.2103 55.8128V65.8419H20.6831V57.3689Z" fill="#C7ECEE"/>
<path d="M74.66 78.2917H71.1945V81.75H74.66V78.2917Z" fill="black"/>
<path d="M74.66 73.1041H71.1945V76.5624H74.66V73.1041Z" fill="black"/>
<path d="M74.66 67.9165H71.1945V71.3748H74.66V67.9165Z" fill="black"/>
<path d="M86.7893 99.906C86.5595 99.906 86.3391 99.8149 86.1766 99.6527C86.0141 99.4906 85.9228 99.2706 85.9228 99.0413V88.6665C85.9192 88.5507 85.9389 88.4354 85.9808 88.3274C86.0227 88.2194 86.0859 88.1209 86.1667 88.0377C86.2474 87.9545 86.3441 87.8884 86.451 87.8433C86.5579 87.7981 86.6728 87.7748 86.7889 87.7748C86.9049 87.7748 87.0198 87.7981 87.1267 87.8433C87.2336 87.8884 87.3303 87.9545 87.411 88.0377C87.4918 88.1209 87.555 88.2194 87.5969 88.3274C87.6388 88.4354 87.6586 88.5507 87.6549 88.6665V99.0413C87.6549 99.2705 87.5638 99.4903 87.4014 99.6524C87.2391 99.8145 87.0189 99.9058 86.7893 99.906Z" fill="black"/>
<path d="M59.0644 99.906C58.9507 99.906 58.838 99.8836 58.7329 99.8401C58.6278 99.7967 58.5323 99.733 58.4519 99.6527C58.3714 99.5724 58.3077 99.4771 58.2642 99.3722C58.2207 99.2673 58.1983 99.1548 58.1984 99.0413V88.6665C58.1947 88.5507 58.2145 88.4354 58.2563 88.3274C58.2982 88.2194 58.3615 88.1209 58.4422 88.0377C58.523 87.9545 58.6197 87.8884 58.7266 87.8433C58.8335 87.7981 58.9484 87.7748 59.0644 87.7748C59.1805 87.7748 59.2954 87.7981 59.4023 87.8433C59.5091 87.8884 59.6058 87.9545 59.6866 88.0377C59.7674 88.1209 59.8306 88.2194 59.8725 88.3274C59.9144 88.4354 59.9341 88.5507 59.9305 88.6665V99.0413C59.9305 99.2706 59.8393 99.4904 59.6769 99.6526C59.5145 99.8147 59.2942 99.9059 59.0644 99.906Z" fill="black"/>
<path d="M86.7892 61.8647C86.5594 61.8647 86.339 61.7736 86.1765 61.6114C86.014 61.4493 85.9227 61.2293 85.9227 61V51.2243L77.2439 47.9781C77.0788 47.9162 76.9366 47.8056 76.8362 47.661C76.7358 47.5163 76.682 47.3446 76.682 47.1686V23.8234H69.1721V47.167C69.172 47.3429 69.1181 47.5147 69.0176 47.6593C68.9171 47.804 68.7749 47.9146 68.6097 47.9764L59.9309 51.2226V61C59.9345 61.1158 59.9148 61.2311 59.8729 61.3391C59.831 61.4471 59.7678 61.5456 59.687 61.6288C59.6062 61.712 59.5095 61.7781 59.4026 61.8232C59.2957 61.8684 59.1809 61.8917 59.0648 61.8917C58.9487 61.8917 58.8338 61.8684 58.727 61.8232C58.6201 61.7781 58.5234 61.712 58.4426 61.6288C58.3618 61.5456 58.2986 61.4471 58.2567 61.3391C58.2148 61.2311 58.1951 61.1158 58.1987 61V50.6252C58.1987 50.4493 58.2524 50.2775 58.3529 50.1328C58.4533 49.9882 58.5955 49.8776 58.7606 49.8158L67.4395 46.5696V22.9608C67.4395 22.7315 67.5308 22.5115 67.6933 22.3494C67.8558 22.1872 68.0762 22.0961 68.306 22.0961H77.5489C77.6627 22.0961 77.7753 22.1185 77.8805 22.1619C77.9856 22.2054 78.0811 22.2691 78.1616 22.3494C78.242 22.4297 78.3059 22.525 78.3494 22.6299C78.393 22.7348 78.4154 22.8473 78.4154 22.9608V46.5696L87.0938 49.8158C87.259 49.8775 87.4014 49.9881 87.5018 50.1327C87.6023 50.2774 87.6562 50.4492 87.6561 50.6252V61C87.6561 61.1136 87.6337 61.2261 87.5901 61.331C87.5466 61.4359 87.4827 61.5313 87.4022 61.6116C87.3217 61.6919 87.2261 61.7555 87.1209 61.799C87.0158 61.8424 86.9031 61.8647 86.7892 61.8647Z" fill="black"/>
<path d="M86.7892 89.5312H59.0644C58.9506 89.5312 58.8379 89.5088 58.7328 89.4654C58.6277 89.4219 58.5322 89.3582 58.4518 89.2779C58.3714 89.1976 58.3076 89.1023 58.2641 88.9974C58.2206 88.8925 58.1982 88.78 58.1983 88.6665V61C58.1982 60.8865 58.2206 60.774 58.2641 60.6691C58.3076 60.5642 58.3714 60.4689 58.4518 60.3886C58.5322 60.3083 58.6277 60.2446 58.7328 60.2011C58.8379 60.1577 58.9506 60.1353 59.0644 60.1353H86.7892C86.903 60.1353 87.0157 60.1577 87.1208 60.2011C87.226 60.2446 87.3215 60.3083 87.4019 60.3886C87.4824 60.4689 87.5462 60.5642 87.5898 60.6691C87.6333 60.774 87.6557 60.8864 87.6557 61V88.6665C87.6557 88.7801 87.6333 88.8925 87.5898 88.9974C87.5462 89.1023 87.4824 89.1976 87.4019 89.2779C87.3215 89.3582 87.226 89.4219 87.1208 89.4654C87.0157 89.5088 86.903 89.5312 86.7892 89.5312ZM59.9309 87.8027H85.9227V61.8647H59.9309V87.8027Z" fill="black"/>
<path d="M52.1333 99.906C51.9035 99.906 51.6831 99.8149 51.5206 99.6527C51.3581 99.4906 51.2668 99.2706 51.2668 99.0413V92.1248C51.2632 92.009 51.2829 91.8937 51.3248 91.7857C51.3667 91.6777 51.4299 91.5792 51.5107 91.496C51.5914 91.4128 51.6881 91.3467 51.795 91.3015C51.9019 91.2564 52.0168 91.2331 52.1329 91.2331C52.2489 91.2331 52.3638 91.2564 52.4707 91.3015C52.5776 91.3467 52.6743 91.4128 52.755 91.496C52.8358 91.5792 52.899 91.6777 52.9409 91.7857C52.9828 91.8937 53.0025 92.009 52.9989 92.1248V99.0413C52.9989 99.2705 52.9078 99.4903 52.7454 99.6524C52.5831 99.8146 52.3629 99.9058 52.1333 99.906Z" fill="black"/>
<path d="M19.2103 99.906C18.9805 99.906 18.7601 99.8149 18.5976 99.6527C18.4351 99.4906 18.3438 99.2706 18.3438 99.0413V92.1248C18.3402 92.009 18.3599 91.8937 18.4018 91.7857C18.4437 91.6777 18.5069 91.5792 18.5877 91.496C18.6685 91.4128 18.7652 91.3467 18.872 91.3015C18.9789 91.2564 19.0938 91.2331 19.2099 91.2331C19.3259 91.2331 19.4408 91.2564 19.5477 91.3015C19.6546 91.3467 19.7513 91.4128 19.8321 91.496C19.9129 91.5792 19.9761 91.6777 20.018 91.7857C20.0599 91.8937 20.0796 92.009 20.0759 92.1248V99.0413C20.076 99.1548 20.0537 99.2672 20.0102 99.3721C19.9667 99.477 19.903 99.5723 19.8226 99.6526C19.7422 99.7329 19.6468 99.7966 19.5417 99.84C19.4366 99.8835 19.324 99.9059 19.2103 99.906Z" fill="black"/>
<path d="M52.1333 66.7061C51.9035 66.7061 51.6831 66.615 51.5206 66.4529C51.3581 66.2907 51.2668 66.0708 51.2668 65.8415V56.4469L40.8988 53.1796C40.7231 53.1243 40.5696 53.0146 40.4606 52.8663C40.3517 52.718 40.293 52.5388 40.293 52.355V32.4688H31.0506V52.3541C31.0506 52.5379 30.9919 52.717 30.883 52.8653C30.7742 53.0135 30.6208 53.1234 30.4452 53.1787L20.0764 56.4469V65.8423C20.08 65.9581 20.0603 66.0734 20.0184 66.1814C19.9765 66.2894 19.9133 66.3879 19.8325 66.4711C19.7517 66.5543 19.655 66.6204 19.5481 66.6656C19.4413 66.7107 19.3264 66.734 19.2103 66.734C19.0942 66.734 18.9794 66.7107 18.8725 66.6656C18.7656 66.6204 18.6689 66.5543 18.5881 66.4711C18.5073 66.3879 18.4441 66.2894 18.4022 66.1814C18.3603 66.0734 18.3406 65.9581 18.3442 65.8423V55.8145C18.3437 55.6305 18.402 55.4512 18.5106 55.3026C18.6193 55.154 18.7727 55.0438 18.9484 54.9882L29.3167 51.7205V31.6045C29.3167 31.3752 29.408 31.1553 29.5705 30.9931C29.733 30.831 29.9534 30.7399 30.1832 30.7399H41.1587C41.3885 30.7399 41.6089 30.831 41.7714 30.9931C41.9339 31.1553 42.0252 31.3752 42.0252 31.6045V51.7205L52.3935 54.9882C52.5696 55.0435 52.7234 55.1534 52.8325 55.3021C52.9416 55.4507 53.0002 55.6303 52.9998 55.8145V65.8436C52.9992 66.0725 52.9077 66.2919 52.7452 66.4536C52.5828 66.6153 52.3627 66.7061 52.1333 66.7061Z" fill="black"/>
<path d="M52.1333 92.9895H19.2103C18.9805 92.9895 18.7601 92.8984 18.5976 92.7362C18.4351 92.574 18.3438 92.3541 18.3438 92.1248V65.8415C18.3438 65.7279 18.3662 65.6155 18.4098 65.5106C18.4533 65.4058 18.5172 65.3105 18.5976 65.2302C18.6781 65.15 18.7736 65.0863 18.8787 65.0429C18.9839 64.9995 19.0965 64.9772 19.2103 64.9772H27.1892C28.0117 61.183 31.5258 58.4064 35.6716 58.4064C39.8173 58.4064 43.3319 61.1817 44.1544 64.9772H52.1333C52.2471 64.9772 52.3597 64.9995 52.4648 65.0429C52.57 65.0863 52.6655 65.15 52.746 65.2302C52.8264 65.3105 52.8903 65.4058 52.9338 65.5106C52.9774 65.6155 52.9998 65.7279 52.9998 65.8415V92.1248C52.9998 92.3541 52.9085 92.574 52.746 92.7362C52.5835 92.8984 52.3631 92.9895 52.1333 92.9895ZM20.0764 91.261H51.2676V66.7062H43.421C43.2086 66.7061 43.0036 66.6283 42.845 66.4874C42.6863 66.3465 42.5851 66.1523 42.5604 65.9418C42.1739 62.6315 39.2123 60.1353 35.6716 60.1353C32.1308 60.1353 29.1697 62.6315 28.7853 65.9418C28.7606 66.1523 28.6593 66.3465 28.5007 66.4874C28.342 66.6283 28.1371 66.7061 27.9247 66.7062H20.0764V91.261Z" fill="black"/>
<path d="M45.2022 79.156H26.1414C26.0254 79.1596 25.9098 79.1399 25.8016 79.0981C25.6934 79.0563 25.5946 78.9932 25.5113 78.9126C25.428 78.832 25.3617 78.7355 25.3164 78.6289C25.2712 78.5222 25.2479 78.4076 25.2479 78.2917C25.2479 78.1759 25.2712 78.0613 25.3164 77.9546C25.3617 77.848 25.428 77.7515 25.5113 77.6709C25.5946 77.5902 25.6934 77.5272 25.8016 77.4854C25.9098 77.4436 26.0254 77.4239 26.1414 77.4275H45.2022C45.3182 77.4239 45.4337 77.4436 45.542 77.4854C45.6502 77.5272 45.7489 77.5902 45.8323 77.6709C45.9156 77.7515 45.9819 77.848 46.0271 77.9546C46.0724 78.0613 46.0957 78.1759 46.0957 78.2917C46.0957 78.4076 46.0724 78.5222 46.0271 78.6289C45.9819 78.7355 45.9156 78.832 45.8323 78.9126C45.7489 78.9932 45.6502 79.0563 45.542 79.0981C45.4337 79.1399 45.3182 79.1596 45.2022 79.156Z" fill="black"/>
<path d="M45.2022 86.0729H26.1414C25.9164 86.0659 25.703 85.9718 25.5463 85.8105C25.3896 85.6492 25.302 85.4333 25.302 85.2087C25.302 84.984 25.3896 84.7682 25.5463 84.6069C25.703 84.4456 25.9164 84.3514 26.1414 84.3444H45.2022C45.3182 84.3408 45.4338 84.3605 45.542 84.4023C45.6503 84.4441 45.749 84.5072 45.8323 84.5878C45.9157 84.6684 45.9819 84.7649 46.0272 84.8715C46.0724 84.9782 46.0958 85.0928 46.0958 85.2087C46.0958 85.3245 46.0724 85.4391 46.0272 85.5458C45.9819 85.6524 45.9157 85.7489 45.8323 85.8296C45.749 85.9102 45.6503 85.9732 45.542 86.015C45.4338 86.0569 45.3182 86.0765 45.2022 86.0729Z" fill="black"/>
<path d="M93.7204 99.906H12.2788C12.1628 99.9096 12.0472 99.8899 11.939 99.8481C11.8308 99.8063 11.732 99.7432 11.6487 99.6626C11.5653 99.582 11.4991 99.4855 11.4538 99.3788C11.4086 99.2722 11.3853 99.1576 11.3853 99.0417C11.3853 98.9259 11.4086 98.8113 11.4538 98.7046C11.4991 98.598 11.5653 98.5015 11.6487 98.4208C11.732 98.3402 11.8308 98.2772 11.939 98.2353C12.0472 98.1935 12.1628 98.1739 12.2788 98.1775H93.7204C93.8364 98.1739 93.952 98.1935 94.0602 98.2353C94.1684 98.2772 94.2672 98.3402 94.3505 98.4208C94.4338 98.5015 94.5001 98.598 94.5454 98.7046C94.5906 98.8113 94.6139 98.9259 94.6139 99.0417C94.6139 99.1576 94.5906 99.2722 94.5454 99.3788C94.5001 99.4855 94.4338 99.582 94.3505 99.6626C94.2672 99.7432 94.1684 99.8063 94.0602 99.8481C93.952 99.8899 93.8364 99.9096 93.7204 99.906Z" fill="black"/>
</g>
<defs>
<clipPath id="clip0_769_22929">
<rect width="106" height="122" fill="white"/>
</clipPath>
</defs>
</svg>
