<svg width="16" height="17" viewBox="0 0 16 17" fill="none" xmlns="http://www.w3.org/2000/svg">
<circle cx="8" cy="9" r="7.5" fill="white" stroke="#474747"/>
<mask id="path-2-inside-1_423_54271" fill="white">
<path d="M15.5156 6.25841C15.0508 4.98441 14.2698 3.84946 13.246 2.96018C12.2222 2.07091 10.9891 1.45649 9.66256 1.17466L9.43559 2.24298C10.581 2.48633 11.6458 3.01687 12.5298 3.78474C13.4139 4.55261 14.0882 5.53262 14.4895 6.63269L15.5156 6.25841Z"/>
</mask>
<path d="M15.5156 6.25841C15.0508 4.98441 14.2698 3.84946 13.246 2.96018C12.2222 2.07091 10.9891 1.45649 9.66256 1.17466L9.43559 2.24298C10.581 2.48633 11.6458 3.01687 12.5298 3.78474C13.4139 4.55261 14.0882 5.53262 14.4895 6.63269L15.5156 6.25841Z" fill="white" stroke="white" strokeWidth="2" mask="url(#path-2-inside-1_423_54271)"/>
<circle cx="5" cy="7" r="1" fill="#474747"/>
<circle cx="11" cy="7" r="1" fill="#474747"/>
<path d="M4 11C5.5 13 8 13 8 13V13C8 13 10.5 13 12 11" stroke="#474747"/>
<line x1="13.5" x2="13.5" y2="5" stroke="#474747"/>
<line x1="11" y1="2.5" x2="16" y2="2.5" stroke="#474747"/>
</svg>
