<svg width="17" height="17" viewBox="0 0 17 17" fill="none" xmlns="http://www.w3.org/2000/svg">
<g id="search">
<path id="Vector" d="M14.8827 13.7877L11.9418 10.8467C12.6498 9.90413 13.0321 8.75679 13.0308 7.57789C13.0308 4.56661 10.5809 2.1167 7.56959 2.1167C4.55831 2.1167 2.1084 4.56661 2.1084 7.57789C2.1084 10.5892 4.55831 13.0391 7.56959 13.0391C8.74849 13.0404 9.89583 12.6581 10.8384 11.9501L13.7794 14.891C13.9282 15.0241 14.1224 15.0952 14.322 15.0896C14.5216 15.084 14.7115 15.0022 14.8527 14.861C14.9939 14.7198 15.0757 14.5299 15.0813 14.3303C15.0869 14.1307 15.0158 13.9365 14.8827 13.7877ZM3.66874 7.57789C3.66874 6.80637 3.89752 6.05218 4.32615 5.41069C4.75478 4.7692 5.36401 4.26922 6.0768 3.97397C6.78958 3.67873 7.57391 3.60148 8.3306 3.75199C9.08729 3.90251 9.78236 4.27403 10.3279 4.81957C10.8734 5.36511 11.245 6.06018 11.3955 6.81687C11.546 7.57356 11.4687 8.35789 11.1735 9.07068C10.8783 9.78346 10.3783 10.3927 9.73678 10.8213C9.09529 11.25 8.3411 11.4787 7.56959 11.4787C6.5354 11.4775 5.54392 11.0661 4.81264 10.3348C4.08136 9.60355 3.66998 8.61208 3.66874 7.57789Z" fill="black"/>
</g>
</svg>
