<svg width="18" height="18" viewBox="0 0 18 18" fill="none" xmlns="http://www.w3.org/2000/svg">
<rect width="18" height="18" fill="#1E1E1E"/>
<g id="Customers - Customer View" clip-path="url(#clip0_172_5741)">
<rect width="1440" height="1424" transform="translate(-641 -391)" fill="#EEEEEE"/>
<g id="mainContainer" clip-path="url(#clip1_172_5741)">
<rect id="BG" x="-338" y="-267" width="1117" height="1236" rx="4" fill="white"/>
<g id="Frame 1129">
<g id="Experience Card">
<rect id="BG_2" x="-306.5" y="-117.5" width="347" height="159" rx="4.5" fill="white" stroke="#CACACA"/>
<g id="Star">
<path id="Star_2" d="M13.3882 10.8895C13.1825 11.0894 13.088 11.3785 13.1349 11.662L13.8409 15.5802C13.9005 15.9123 13.7607 16.2484 13.4835 16.4404C13.2119 16.6395 12.8505 16.6633 12.5543 16.5041L9.0367 14.6644C8.91438 14.5991 8.77857 14.564 8.63958 14.5601H8.42435C8.34969 14.5712 8.27663 14.5951 8.20991 14.6317L4.69151 16.4802C4.51757 16.5678 4.32061 16.5988 4.12761 16.5678C3.65743 16.4786 3.34371 16.0294 3.42075 15.5556L4.12761 11.6373C4.17447 11.3514 4.07996 11.0607 3.87425 10.8576L1.00632 8.07023C0.766463 7.83689 0.683069 7.48647 0.792672 7.1703C0.899098 6.85493 1.17072 6.62477 1.49874 6.57301L5.44602 5.99881C5.74623 5.96775 6.00992 5.78458 6.14493 5.5138L7.88428 1.93798C7.92558 1.85834 7.97879 1.78508 8.04312 1.72296L8.1146 1.66721C8.15193 1.6258 8.19482 1.59155 8.24247 1.56368L8.32904 1.53182L8.46406 1.47607H8.79843C9.09706 1.50713 9.35994 1.68632 9.49734 1.95391L11.2597 5.5138C11.3868 5.77422 11.6338 5.955 11.9189 5.99881L15.8662 6.57301C16.1998 6.62079 16.4786 6.85175 16.589 7.1703C16.693 7.48966 16.6032 7.84007 16.3586 8.07023L13.3882 10.8895Z" fill="#FFD66B"/>
<path id="Star - Off" d="M13.3882 10.8895C13.1825 11.0894 13.088 11.3785 13.1349 11.662L13.8409 15.5802C13.9005 15.9123 13.7607 16.2484 13.4835 16.4404C13.2119 16.6395 12.8505 16.6633 12.5543 16.5041L9.0367 14.6644C8.91438 14.5991 8.77857 14.564 8.63958 14.5601H8.42435C8.34969 14.5712 8.27663 14.5951 8.20991 14.6317L4.69151 16.4802C4.51757 16.5678 4.32061 16.5988 4.12761 16.5678C3.65743 16.4786 3.34371 16.0294 3.42075 15.5556L4.12761 11.6373C4.17447 11.3514 4.07996 11.0607 3.87425 10.8576L1.00632 8.07023C0.766463 7.83689 0.683069 7.48647 0.792672 7.1703C0.899098 6.85493 1.17072 6.62477 1.49874 6.57301L5.44602 5.99881C5.74623 5.96775 6.00992 5.78458 6.14493 5.5138L7.88428 1.93798C7.92558 1.85834 7.97879 1.78508 8.04312 1.72296L8.1146 1.66721C8.15193 1.6258 8.19482 1.59155 8.24247 1.56368L8.32904 1.53182L8.46406 1.47607H8.79843C9.09706 1.50713 9.35994 1.68632 9.49734 1.95391L11.2597 5.5138C11.3868 5.77422 11.6338 5.955 11.9189 5.99881L15.8662 6.57301C16.1998 6.62079 16.4786 6.85175 16.589 7.1703C16.693 7.48966 16.6032 7.84007 16.3586 8.07023L13.3882 10.8895Z" fill="white" stroke="#6C6C70"/>
</g>
</g>
</g>
</g>
</g>
<defs>
<clipPath id="clip0_172_5741">
<rect width="1440" height="1424" fill="white" transform="translate(-641 -391)"/>
</clipPath>
<clipPath id="clip1_172_5741">
<rect width="1144" height="1360" fill="white" transform="translate(-345 -391)"/>
</clipPath>
</defs>
</svg>
