<svg width="20" height="20" viewBox="0 0 20 20" fill="none" xmlns="http://www.w3.org/2000/svg">
<path d="M4.37524 4.37695L5.15649 16.877C5.1936 17.5992 5.71899 18.127 6.40649 18.127H13.594C14.2842 18.127 14.7999 17.5992 14.844 16.877L15.6252 4.37695" stroke="#D2D2D2" strokeWidth="1.00189" strokeLinecap="round" strokeLinejoin="round"/>
<path d="M3.12549 4.37695H16.8755" stroke="#D2D2D2" strokeWidth="1.00189" stroke-miterlimit="10" strokeLinecap="round"/>
<path d="M7.5 4.37536V2.81264C7.49964 2.6894 7.52365 2.56732 7.57064 2.45339C7.61763 2.33947 7.68669 2.23596 7.77383 2.14883C7.86096 2.06169 7.96447 1.99263 8.07839 1.94564C8.19232 1.89865 8.3144 1.87464 8.43764 1.875H11.5631C11.6863 1.87464 11.8084 1.89865 11.9223 1.94564C12.0362 1.99263 12.1398 2.06169 12.2269 2.14883C12.314 2.23596 12.3831 2.33947 12.4301 2.45339C12.4771 2.56732 12.5011 2.6894 12.5007 2.81264V4.37536" stroke="#D2D2D2" strokeWidth="1.00189" strokeLinecap="round" strokeLinejoin="round"/>
<path d="M10.0006 6.875V15.625" stroke="#D2D2D2" strokeWidth="1.00189" strokeLinecap="round" strokeLinejoin="round"/>
<path d="M7.18762 6.875L7.50012 15.625" stroke="#D2D2D2" strokeWidth="1.00189" strokeLinecap="round" strokeLinejoin="round"/>
<path d="M12.8126 6.875L12.5001 15.625" stroke="#D2D2D2" strokeWidth="1.00189" strokeLinecap="round" strokeLinejoin="round"/>
</svg>
