<svg width="24" height="24" viewBox="0 0 24 24" fill="none" xmlns="http://www.w3.org/2000/svg">
<path d="M5.25024 5.25214L6.18774 20.2521C6.23228 21.1189 6.86274 21.7521 7.68774 21.7521H16.3127C17.141 21.7521 17.7598 21.1189 17.8127 20.2521L18.7502 5.25214" stroke="#C50101" strokeWidth="1.00189" strokeLinecap="round" strokeLinejoin="round"/>
<path d="M3.75067 5.2525H20.2507" stroke="#C50101" strokeWidth="1.00189" stroke-miterlimit="10" strokeLinecap="round"/>
<path d="M9.00007 5.25049V3.37523C8.99963 3.22735 9.02844 3.08084 9.08483 2.94413C9.14122 2.80743 9.22408 2.68322 9.32865 2.57865C9.43322 2.47408 9.55743 2.39122 9.69413 2.33483C9.83084 2.27844 9.97735 2.24963 10.1252 2.25007H13.8758C14.0236 2.24963 14.1701 2.27844 14.3069 2.33483C14.4436 2.39122 14.5678 2.47408 14.6723 2.57865C14.7769 2.68322 14.8598 2.80743 14.9162 2.94413C14.9725 3.08084 15.0014 3.22735 15.0009 3.37523V5.25049" stroke="#C50101" strokeWidth="1.00189" strokeLinecap="round" strokeLinejoin="round"/>
<path d="M12.0007 8.24982V18.7498" stroke="#C50101" strokeWidth="1.00189" strokeLinecap="round" strokeLinejoin="round"/>
<path d="M8.62506 8.24982L9.00006 18.7498" stroke="#C50101" strokeWidth="1.00189" strokeLinecap="round" strokeLinejoin="round"/>
<path d="M15.3752 8.24982L15.0002 18.7498" stroke="#C50101" strokeWidth="1.00189" strokeLinecap="round" strokeLinejoin="round"/>
</svg>
