<svg width="25" height="25" viewBox="0 0 25 25" fill="none" xmlns="http://www.w3.org/2000/svg">
<path fill-rule="evenodd" clipRule="evenodd" d="M19.7408 5.04111C18.77 4.06989 17.6167 3.30027 16.3474 2.77656C15.078 2.25284 13.7175 1.98537 12.3444 1.98955C6.58154 1.98955 1.89029 6.65736 1.88795 12.3958C1.8854 14.223 2.36706 16.0183 3.28389 17.5989L1.80029 22.9896L7.34326 21.5425C8.87758 22.3737 10.5951 22.8088 12.3401 22.8081H12.3444C18.1067 22.8081 22.7975 18.1399 22.8003 12.4019C22.8038 11.0334 22.5351 9.67789 22.0098 8.41421C21.4846 7.15053 20.7133 6.00393 19.7408 5.04111ZM12.3444 21.0517H12.3406C10.785 21.0522 9.25768 20.6359 7.91748 19.8461L7.60014 19.6586L4.31092 20.5174L5.18889 17.3256L4.98217 16.9975C4.11235 15.6204 3.6515 14.0246 3.65326 12.3958C3.65326 7.62721 7.55373 3.74736 12.3476 3.74736C14.6473 3.74326 16.8545 4.65277 18.4836 6.27586C20.1128 7.89895 21.0305 10.1027 21.035 12.4024C21.0331 17.1714 17.1345 21.0517 12.3444 21.0517ZM17.1111 14.5741C16.85 14.4438 15.5642 13.8147 15.3261 13.728C15.0879 13.6413 14.9122 13.5977 14.7383 13.8583C14.5644 14.1189 14.0633 14.7021 13.9109 14.8778C13.7586 15.0536 13.6062 15.0728 13.3451 14.9425C13.084 14.8122 12.2417 14.538 11.2437 13.6521C10.467 12.9625 9.94295 12.1113 9.79061 11.8511C9.63826 11.591 9.7742 11.4499 9.90498 11.3205C10.0226 11.2038 10.1661 11.0167 10.2969 10.8649C10.4276 10.713 10.4712 10.6042 10.5579 10.4308C10.6447 10.2574 10.6015 10.1055 10.5364 9.97564C10.4712 9.8458 9.94857 8.56564 9.73107 8.04486C9.51873 7.53767 9.30357 7.60658 9.14326 7.59861C8.99092 7.59111 8.81514 7.58924 8.64217 7.58924C8.50994 7.59268 8.37984 7.62334 8.25999 7.67932C8.14014 7.73529 8.03312 7.81537 7.94561 7.91455C7.70607 8.17518 7.03107 8.80517 7.03107 10.0839C7.03107 11.3627 7.96857 12.6002 8.09795 12.7736C8.22732 12.9471 9.94014 15.5735 12.5609 16.6999C13.0476 16.9083 13.5448 17.091 14.0506 17.2474C14.6764 17.4452 15.2459 17.4175 15.6959 17.3505C16.1979 17.276 17.2428 16.7214 17.4598 16.1139C17.6769 15.5064 17.6773 14.9861 17.6122 14.8778C17.547 14.7696 17.3726 14.7039 17.1111 14.5741Z" fill="#264653"/>
</svg>
