<svg width="25" height="25" viewBox="0 0 25 25" fill="none" xmlns="http://www.w3.org/2000/svg">
<g id="basket">
<path id="Vector" d="M3.40064 9.8374C3.14857 9.83715 2.90661 9.93653 2.7275 10.1139C2.54838 10.2912 2.44662 10.5322 2.44439 10.7843C2.44337 10.8716 2.45602 10.9586 2.48189 11.0421L4.90533 19.5874C5.01765 19.9866 5.2577 20.3379 5.58872 20.5877C5.91974 20.8374 6.32348 20.9718 6.73814 20.9702H17.6506C18.0661 20.9706 18.4704 20.8359 18.8027 20.5865C19.135 20.3371 19.3772 19.9864 19.4928 19.5874L21.9163 11.0421L21.9444 10.7843C21.9422 10.5322 21.8404 10.2912 21.6613 10.1139C21.4822 9.93653 21.2402 9.83715 20.9881 9.8374H3.40064ZM12.4625 17.3407C12.0729 17.3387 11.6926 17.2214 11.3696 17.0036C11.0466 16.7857 10.7954 16.477 10.6476 16.1165C10.4999 15.756 10.4622 15.3598 10.5394 14.9779C10.6166 14.596 10.8052 14.2456 11.0814 13.9708C11.3576 13.696 11.709 13.5091 12.0912 13.4338C12.4735 13.3585 12.8695 13.3982 13.2293 13.5477C13.589 13.6972 13.8965 13.95 14.1127 14.2741C14.329 14.5982 14.4444 14.979 14.4444 15.3687C14.4419 15.8926 14.232 16.3943 13.8606 16.7638C13.4892 17.1334 12.9865 17.3408 12.4625 17.3407V17.3407Z" stroke="black" strokeWidth="1.00189" strokeLinejoin="round"/>
<path id="Vector_2" d="M7.69336 9.83875L12.194 3.83789L16.6946 9.83875" stroke="black" strokeWidth="1.00189" strokeLinejoin="round"/>
</g>
</svg>
