<svg width="25" height="25" viewBox="0 0 25 25" fill="none" xmlns="http://www.w3.org/2000/svg">
<path d="M8.88077 20.4221C9.29871 20.4221 9.63752 20.0833 9.63752 19.6653C9.63752 19.2474 9.29871 18.9086 8.88077 18.9086C8.46283 18.9086 8.12402 19.2474 8.12402 19.6653C8.12402 20.0833 8.46283 20.4221 8.88077 20.4221Z" stroke="#264653" strokeWidth="1.00189" strokeLinecap="round" strokeLinejoin="round"/>
<path d="M19.3806 20.4221C19.7986 20.4221 20.1374 20.0833 20.1374 19.6653C20.1374 19.2474 19.7986 18.9086 19.3806 18.9086C18.9627 18.9086 18.6239 19.2474 18.6239 19.6653C18.6239 20.0833 18.9627 20.4221 19.3806 20.4221Z" stroke="#264653" strokeWidth="1.00189" strokeLinecap="round" strokeLinejoin="round"/>
<path d="M2.8739 3.90796H5.8739L8.1239 16.658H20.1239" stroke="#264653" strokeWidth="1.00189" strokeLinecap="round" strokeLinejoin="round"/>
<path d="M8.12549 13.6589H19.818C19.9047 13.659 19.9888 13.629 20.0559 13.574C20.123 13.5191 20.1689 13.4426 20.186 13.3575L21.536 6.60753C21.5469 6.5531 21.5455 6.49693 21.5321 6.44308C21.5186 6.38922 21.4934 6.33903 21.4582 6.29611C21.423 6.25319 21.3787 6.21862 21.3285 6.1949C21.2783 6.17118 21.2235 6.1589 21.168 6.15894H6.62549" stroke="#264653" strokeWidth="1.00189" strokeLinecap="round" strokeLinejoin="round"/>
</svg>
