<svg width="19" height="20" viewBox="0 0 19 20" fill="none" xmlns="http://www.w3.org/2000/svg">
<path d="M9.5 7.55401C9.5 7.39048 9.43745 7.23365 9.3261 7.11801C9.21475 7.00238 9.06372 6.93742 8.90625 6.93742C8.74878 6.93742 8.59776 7.00238 8.48641 7.11801C8.37506 7.23365 8.3125 7.39048 8.3125 7.55401V11.2535C8.3125 11.4171 8.37506 11.5739 8.48641 11.6895C8.59776 11.8052 8.74878 11.8701 8.90625 11.8701H11.2813C11.4387 11.8701 11.5897 11.8052 11.7011 11.6895C11.8124 11.5739 11.875 11.4171 11.875 11.2535C11.875 11.09 11.8124 10.9332 11.7011 10.8175C11.5897 10.7019 11.4387 10.6369 11.2813 10.6369H9.5V7.55401ZM2.375 5.70425C2.375 5.03482 2.58482 4.38358 2.97276 3.84894C3.36069 3.3143 3.90566 2.92532 4.52532 2.74077C5.14497 2.55622 5.80563 2.58614 6.40746 2.82599C7.0093 3.06585 7.5196 3.50262 7.86125 4.07029C8.93606 3.78155 10.0639 3.78155 11.1388 4.07029C11.3666 3.69168 11.6709 3.36896 12.0306 3.12447C12.3903 2.87997 12.7969 2.71953 13.2222 2.65424C13.6475 2.58895 14.0814 2.62036 14.4939 2.74631C14.9063 2.87225 15.2875 3.08973 15.6111 3.38369C15.9347 3.67765 16.1929 4.04109 16.3679 4.44888C16.543 4.85666 16.6306 5.29906 16.6249 5.74548C16.6191 6.1919 16.52 6.63169 16.3345 7.03444C16.1489 7.43718 15.8814 7.79328 15.5503 8.07811C15.8603 8.86734 16.0313 9.73056 16.0313 10.6369C16.0338 12.2233 15.4986 13.76 14.5196 14.9777L15.8579 16.3663C15.966 16.4826 16.0259 16.6383 16.0245 16.8C16.0232 16.9616 15.9607 17.1163 15.8506 17.2306C15.7406 17.3449 15.5916 17.4098 15.436 17.4112C15.2803 17.4126 15.1303 17.3504 15.0183 17.2381L13.68 15.8496C12.5074 16.8663 11.0276 17.422 9.5 17.4194C7.97239 17.422 6.49262 16.8663 5.32 15.8496L3.98288 17.2393C3.92767 17.2966 3.86215 17.342 3.79005 17.3729C3.71795 17.4039 3.64069 17.4198 3.56268 17.4197C3.48466 17.4197 3.40742 17.4037 3.33536 17.3726C3.26331 17.3415 3.19785 17.2961 3.14272 17.2387C3.08759 17.1814 3.04388 17.1134 3.01408 17.0385C2.98427 16.9636 2.96896 16.8834 2.96901 16.8024C2.96913 16.6387 3.03182 16.4819 3.14331 16.3663L4.48044 14.9777C3.50137 13.76 2.96622 12.2233 2.96875 10.6369C2.96875 9.73179 3.13975 8.86734 3.44969 8.07811C3.11317 7.78912 2.84232 7.42645 2.65653 7.01607C2.47074 6.60568 2.37461 6.15772 2.375 5.70425ZM5.34375 3.85449C4.99917 3.85438 4.66195 3.95806 4.37297 4.15297C4.08399 4.34788 3.85566 4.62565 3.71564 4.95261C3.57562 5.27957 3.52993 5.64169 3.58411 5.99508C3.63829 6.34846 3.79001 6.67794 4.02088 6.94359C4.68073 5.89016 5.60833 5.04681 6.70106 4.50684C6.53404 4.30223 6.32609 4.13788 6.09169 4.02522C5.85728 3.91255 5.60205 3.85429 5.34375 3.85449ZM12.2989 4.50684C13.3917 5.04675 14.3193 5.89011 14.9791 6.94359C15.1366 6.76138 15.2577 6.54852 15.3354 6.31735C15.413 6.08617 15.4457 5.84129 15.4316 5.59689C15.4174 5.3525 15.3567 5.11345 15.2529 4.89362C15.1491 4.67379 15.0043 4.47754 14.8269 4.31627C14.6495 4.15499 14.443 4.03188 14.2195 3.95409C13.9959 3.8763 13.7597 3.84538 13.5246 3.8631C13.2894 3.88083 13.06 3.94686 12.8496 4.05736C12.6392 4.16787 12.452 4.32064 12.2989 4.50684ZM9.5 5.08766C8.08275 5.08766 6.72355 5.67231 5.7214 6.71301C4.71925 7.7537 4.15625 9.16518 4.15625 10.6369C4.15625 12.1087 4.71925 13.5202 5.7214 14.5609C6.72355 15.6016 8.08275 16.1862 9.5 16.1862C10.9173 16.1862 12.2765 15.6016 13.2786 14.5609C14.2808 13.5202 14.8438 12.1087 14.8438 10.6369C14.8438 9.16518 14.2808 7.7537 13.2786 6.71301C12.2765 5.67231 10.9173 5.08766 9.5 5.08766Z" fill="black"/>
</svg>
