<svg width="24" height="24" viewBox="0 0 24 24" fill="none" xmlns="http://www.w3.org/2000/svg">
<g id="icon/nav/company goals">
<path id="Vector" d="M9.21875 2.03571C8.64727 2.03571 8.1875 2.48951 8.1875 3.05357V15.9464C8.1875 16.3027 8.12734 16.6462 8.01133 16.9643H20.9062C21.4777 16.9643 21.9375 16.5105 21.9375 15.9464V3.05357C21.9375 2.48951 21.4777 2.03571 20.9062 2.03571H9.21875ZM5.09375 19C3.38359 19 2 17.6344 2 15.9464V3.39286C2 2.82879 2.45977 2.375 3.03125 2.375C3.60273 2.375 4.0625 2.82879 4.0625 3.39286V15.9464C4.0625 16.5105 4.52227 16.9643 5.09375 16.9643C5.66523 16.9643 6.125 16.5105 6.125 15.9464V3.05357C6.125 1.36562 7.50859 0 9.21875 0H20.9062C22.6164 0 24 1.36562 24 3.05357V15.9464C24 17.6344 22.6164 19 20.9062 19H5.09375ZM9.5625 4.41071C9.5625 3.84665 10.0223 3.39286 10.5938 3.39286H14.7188C15.2902 3.39286 15.75 3.84665 15.75 4.41071V7.80357C15.75 8.36763 15.2902 8.82143 14.7188 8.82143H10.5938C10.0223 8.82143 9.5625 8.36763 9.5625 7.80357V4.41071ZM18.1562 3.39286H19.5312C20.1027 3.39286 20.5625 3.84665 20.5625 4.41071C20.5625 4.97478 20.1027 5.42857 19.5312 5.42857H18.1562C17.5848 5.42857 17.125 4.97478 17.125 4.41071C17.125 3.84665 17.5848 3.39286 18.1562 3.39286ZM18.1562 6.78571H19.5312C20.1027 6.78571 20.5625 7.23951 20.5625 7.80357C20.5625 8.36763 20.1027 8.82143 19.5312 8.82143H18.1562C17.5848 8.82143 17.125 8.36763 17.125 7.80357C17.125 7.23951 17.5848 6.78571 18.1562 6.78571ZM10.5938 10.1786H19.5312C20.1027 10.1786 20.5625 10.6324 20.5625 11.1964C20.5625 11.7605 20.1027 12.2143 19.5312 12.2143H10.5938C10.0223 12.2143 9.5625 11.7605 9.5625 11.1964C9.5625 10.6324 10.0223 10.1786 10.5938 10.1786ZM10.5938 13.5714H19.5312C20.1027 13.5714 20.5625 14.0252 20.5625 14.5893C20.5625 15.1533 20.1027 15.6071 19.5312 15.6071H10.5938C10.0223 15.6071 9.5625 15.1533 9.5625 14.5893C9.5625 14.0252 10.0223 13.5714 10.5938 13.5714Z" fill="black"/>
</g>
</svg>
