<svg width="29" height="26" viewBox="0 0 29 26" fill="none" xmlns="http://www.w3.org/2000/svg">
<g id="icon/nav/compliance">
<path id="Vector" d="M6.004 8.7178H9.32839C9.42483 8.7178 9.51731 8.67975 9.58551 8.61203C9.6537 8.54431 9.69201 8.45246 9.69201 8.35669V6.29229L11.2527 4.7424C11.3189 4.67427 11.3555 4.58305 11.3547 4.48836C11.3538 4.39368 11.3155 4.30312 11.2481 4.23619C11.1807 4.16925 11.0895 4.1313 10.9941 4.13051C10.8988 4.12971 10.8069 4.16613 10.7384 4.23193L9.69114 5.27193V5.05556C9.69114 4.95978 9.65283 4.86793 9.58463 4.80021C9.51644 4.73249 9.42395 4.69444 9.32751 4.69444H6.004C5.90756 4.69444 5.81507 4.73249 5.74688 4.80021C5.67869 4.86793 5.64038 4.95978 5.64038 5.05556V8.35669C5.64038 8.45246 5.67869 8.54431 5.74688 8.61203C5.81507 8.67975 5.90756 8.7178 6.004 8.7178ZM6.36762 5.41667H8.96593V5.99444L8.09963 6.85244L7.31217 6.07042C7.2784 6.03689 7.23831 6.01028 7.19419 5.99213C7.15006 5.97398 7.10277 5.96464 7.05502 5.96464C7.00726 5.96464 6.95997 5.97398 6.91584 5.99213C6.87172 6.01028 6.83163 6.03689 6.79786 6.07042C6.76409 6.10396 6.7373 6.14377 6.71903 6.18759C6.70075 6.23141 6.69134 6.27837 6.69134 6.3258C6.69134 6.37323 6.70075 6.42019 6.71903 6.46401C6.7373 6.50783 6.76409 6.54764 6.79786 6.58118L7.84248 7.61858C7.87622 7.65215 7.91631 7.67879 7.96043 7.69697C8.00456 7.71514 8.05186 7.7245 8.09963 7.7245C8.1474 7.7245 8.1947 7.71514 8.23883 7.69697C8.28295 7.67879 8.32304 7.65215 8.35679 7.61858L8.96476 7.0148V7.99702H6.36762V5.41667ZM6.004 14.3647H9.32839C9.42483 14.3647 9.51731 14.3267 9.58551 14.2589C9.6537 14.1912 9.69201 14.0994 9.69201 14.0036V11.9392L11.2527 10.3893C11.2892 10.3564 11.3186 10.3165 11.3392 10.272C11.3597 10.2275 11.3709 10.1793 11.372 10.1303C11.3732 10.0814 11.3644 10.0327 11.346 9.98728C11.3277 9.94184 11.3002 9.90058 11.2653 9.86601C11.2304 9.83144 11.1887 9.80428 11.1429 9.78618C11.0971 9.76808 11.0481 9.75942 10.9988 9.76073C10.9495 9.76204 10.901 9.77329 10.8562 9.79379C10.8115 9.81429 10.7714 9.84363 10.7384 9.88L9.69114 10.92V10.7045C9.69114 10.6087 9.65283 10.5169 9.58463 10.4491C9.51644 10.3814 9.42395 10.3434 9.32751 10.3434H6.004C5.90756 10.3434 5.81507 10.3814 5.74688 10.4491C5.67869 10.5169 5.64038 10.6087 5.64038 10.7045V14.0036C5.64038 14.0994 5.67869 14.1912 5.74688 14.2589C5.81507 14.3267 5.90756 14.3647 6.004 14.3647ZM6.36762 11.0644H8.96593V11.6422L8.10079 12.5014L7.31217 11.7173C7.2784 11.6838 7.23831 11.6572 7.19419 11.639C7.15006 11.6209 7.10277 11.6116 7.05502 11.6116C7.00726 11.6116 6.95997 11.6209 6.91584 11.639C6.87172 11.6572 6.83163 11.6838 6.79786 11.7173C6.76409 11.7509 6.7373 11.7907 6.71903 11.8345C6.70075 11.8783 6.69134 11.9253 6.69134 11.9727C6.69134 12.0201 6.70075 12.0671 6.71903 12.1109C6.7373 12.1547 6.76409 12.1946 6.79786 12.2281L7.84248 13.2655C7.91071 13.3332 8.0032 13.3712 8.09963 13.3712C8.19606 13.3712 8.28855 13.3332 8.35679 13.2655L8.96476 12.6614V13.6436H6.36762V11.0644ZM11.4386 5.54667H14.4741C14.5705 5.54667 14.663 5.58471 14.7312 5.65243C14.7994 5.72016 14.8377 5.81201 14.8377 5.90778C14.8377 6.00355 14.7994 6.0954 14.7312 6.16312C14.663 6.23084 14.5705 6.26889 14.4741 6.26889H11.4386C11.3421 6.26889 11.2496 6.23084 11.1814 6.16312C11.1133 6.0954 11.0749 6.00355 11.0749 5.90778C11.0749 5.81201 11.1133 5.72016 11.1814 5.65243C11.2496 5.58471 11.3421 5.54667 11.4386 5.54667ZM11.4386 7.14509H19.1971C19.2936 7.14509 19.386 7.18313 19.4542 7.25086C19.5224 7.31858 19.5607 7.41043 19.5607 7.5062C19.5607 7.60197 19.5224 7.69382 19.4542 7.76154C19.386 7.82927 19.2936 7.86731 19.1971 7.86731H11.4386C11.3421 7.86731 11.2496 7.82927 11.1814 7.76154C11.1133 7.69382 11.0749 7.60197 11.0749 7.5062C11.0749 7.41043 11.1133 7.31858 11.1814 7.25086C11.2496 7.18313 11.3421 7.14509 11.4386 7.14509ZM11.0749 11.5547C11.0749 11.5073 11.0843 11.4603 11.1025 11.4165C11.1208 11.3726 11.1476 11.3328 11.1814 11.2993C11.2151 11.2657 11.2552 11.2391 11.2994 11.221C11.3435 11.2029 11.3908 11.1935 11.4386 11.1936H14.4741C14.5705 11.1936 14.663 11.2316 14.7312 11.2993C14.7994 11.3671 14.8377 11.4589 14.8377 11.5547C14.8377 11.6505 14.7994 11.7423 14.7312 11.81C14.663 11.8778 14.5705 11.9158 14.4741 11.9158H11.4386C11.3908 11.9157 11.3435 11.9062 11.2995 11.888C11.2554 11.8697 11.2154 11.843 11.1817 11.8094C11.148 11.7758 11.1213 11.7359 11.1032 11.6921C11.085 11.6482 11.0757 11.6012 11.0758 11.5538L11.0749 11.5547ZM18.3183 13.1531C18.3181 13.2487 18.2797 13.3404 18.2115 13.4079C18.1433 13.4754 18.051 13.5134 17.9547 13.5134H11.4386C11.3421 13.5134 11.2496 13.4753 11.1814 13.4076C11.1133 13.3399 11.0749 13.248 11.0749 13.1522C11.0749 13.0565 11.1133 12.9646 11.1814 12.8969C11.2496 12.8292 11.3421 12.7911 11.4386 12.7911H17.9547C18.0025 12.791 18.0499 12.8003 18.0941 12.8184C18.1383 12.8365 18.1785 12.863 18.2124 12.8966C18.2462 12.9301 18.2731 12.97 18.2914 13.0139C18.3097 13.0577 18.3192 13.1047 18.3192 13.1522L18.3183 13.1531ZM14.4741 16.8396C14.5705 16.8396 14.663 16.8777 14.7312 16.9454C14.7994 17.0131 14.8377 17.105 14.8377 17.2007C14.8377 17.2965 14.7994 17.3884 14.7312 17.4561C14.663 17.5238 14.5705 17.5618 14.4741 17.5618H11.4386C11.3421 17.5618 11.2496 17.5238 11.1814 17.4561C11.1133 17.3884 11.0749 17.2965 11.0749 17.2007C11.0749 17.105 11.1133 17.0131 11.1814 16.9454C11.2496 16.8777 11.3421 16.8396 11.4386 16.8396H14.4741ZM15.2336 18.7992C15.2336 18.8949 15.1953 18.9868 15.1271 19.0545C15.0589 19.1222 14.9664 19.1603 14.87 19.1603H11.4386C11.3421 19.1603 11.2496 19.1222 11.1814 19.0545C11.1133 18.9868 11.0749 18.8949 11.0749 18.7992C11.0749 18.7034 11.1133 18.6115 11.1814 18.5438C11.2496 18.4761 11.3421 18.438 11.4386 18.438H14.8712C14.9674 18.4383 15.0596 18.4765 15.1275 18.5442C15.1955 18.6119 15.2336 18.7036 15.2336 18.7992ZM11.2527 16.0362C11.3189 15.9681 11.3555 15.8769 11.3547 15.7822C11.3538 15.6875 11.3155 15.5969 11.2481 15.53C11.1807 15.4631 11.0895 15.4251 10.9941 15.4243C10.8988 15.4235 10.8069 15.46 10.7384 15.5258L9.69114 16.5658V16.3502C9.69114 16.2545 9.65283 16.1626 9.58463 16.0949C9.51644 16.0272 9.42395 15.9891 9.32751 15.9891H6.004C5.90756 15.9891 5.81507 16.0272 5.74688 16.0949C5.67869 16.1626 5.64038 16.2545 5.64038 16.3502V19.6505C5.64038 19.7463 5.67869 19.8381 5.74688 19.9059C5.81507 19.9736 5.90756 20.0116 6.004 20.0116H9.32839C9.42483 20.0116 9.51731 19.9736 9.58551 19.9059C9.6537 19.8381 9.69201 19.7463 9.69201 19.6505V17.5861L11.2527 16.0362ZM8.96593 19.2894H6.36762V16.7105H8.96593V17.2883L8.10079 18.1474L7.31333 17.3654C7.24513 17.2977 7.15263 17.2596 7.05618 17.2596C6.95973 17.2596 6.86723 17.2977 6.79902 17.3654C6.73082 17.4331 6.69251 17.525 6.69251 17.6208C6.69251 17.7166 6.73082 17.8084 6.79902 17.8762L7.84364 18.9136C7.91187 18.9812 8.00436 19.0192 8.10079 19.0192C8.19723 19.0192 8.28972 18.9812 8.35795 18.9136L8.96593 18.3095V19.2894ZM28.9646 22.2381C28.9303 22.1087 28.8704 21.9873 28.7884 21.881C28.7065 21.7747 28.6041 21.6857 28.4872 21.619L22.1861 18.0062L22.9971 16.6111H23.0227C23.2565 16.612 23.4839 16.5361 23.6698 16.3953C23.8556 16.2545 23.9893 16.0566 24.0501 15.8325C24.1109 15.6083 24.0954 15.3705 24.0059 15.1561C23.9165 14.9416 23.7582 14.7625 23.5556 14.6467L21.698 13.5836V3.87111C21.698 3.85927 21.698 3.84742 21.6959 3.83558C21.6954 3.83015 21.6947 3.82475 21.6936 3.8194C21.6936 3.81304 21.6936 3.80698 21.6907 3.80062C21.6878 3.79427 21.6878 3.78849 21.6863 3.78213C21.6849 3.77578 21.6837 3.77173 21.6823 3.76653L21.6759 3.74833C21.6741 3.74342 21.6724 3.73822 21.6703 3.73331C21.6683 3.7284 21.6651 3.72176 21.6622 3.71627C21.6593 3.71078 21.6575 3.70616 21.6549 3.70124C21.6523 3.69633 21.6485 3.68998 21.645 3.68449L21.6369 3.67091C21.6322 3.66427 21.6273 3.65791 21.6226 3.65156C21.618 3.6452 21.6183 3.64549 21.6156 3.6426C21.6078 3.63307 21.5994 3.62382 21.5906 3.61516L18.0565 0.1066C18.0477 0.0978623 18.0385 0.0895703 18.0289 0.0817555L18.0193 0.0745333C18.0129 0.0699111 18.0068 0.065 18.0004 0.0606667C17.994 0.0563333 17.9908 0.0548888 17.9861 0.0519999L17.9698 0.0424666L17.9547 0.0352445C17.9492 0.0326445 17.9436 0.0297555 17.9378 0.0274444L17.9224 0.0216666C17.9163 0.0196444 17.9105 0.0173333 17.9044 0.0156C17.8991 0.0139812 17.8938 0.0126313 17.8884 0.0115555L17.87 0.00693338L17.8511 0.00404443L17.8348 0.00173335C17.8226 1.21072e-08 17.8107 0 17.7985 0H4.36362C4.26718 0 4.1747 0.0380455 4.1065 0.105767C4.03831 0.173488 4 0.265338 4 0.361111V21.3541C4 21.4015 4.00941 21.4485 4.02768 21.4923C4.04595 21.5361 4.07274 21.5759 4.1065 21.6094C4.14027 21.643 4.18035 21.6696 4.22447 21.6877C4.26859 21.7059 4.31587 21.7152 4.36362 21.7152H17.2341C17.2595 21.7151 17.2849 21.7125 17.3098 21.7074L18.9164 22.6284C19.0764 22.7206 19.2582 22.7691 19.4432 22.7691C19.6295 22.7692 19.8125 22.7208 19.974 22.6287C20.1356 22.5367 20.27 22.4042 20.3639 22.2444C20.4573 22.084 20.5058 21.9017 20.5044 21.7164H21.3343C21.3821 21.7164 21.4294 21.707 21.4735 21.6889C21.5176 21.6707 21.5577 21.6441 21.5915 21.6106C21.6252 21.5771 21.652 21.5372 21.6703 21.4934C21.6886 21.4496 21.698 21.4027 21.698 21.3552V20.0804L27.461 23.3847C27.6367 23.4857 27.8387 23.5326 28.0413 23.5195C28.2439 23.5064 28.438 23.4338 28.5991 23.311C28.7601 23.1882 28.8808 23.0207 28.9459 22.8297C29.011 22.6387 29.0175 22.4328 28.9646 22.2381ZM19.7833 20.6951L17.1402 19.1799L19.6602 14.8466L22.3025 16.3615L19.7833 20.6951ZM23.3459 15.4746C23.3627 15.5376 23.3604 15.604 23.3392 15.6656C23.3181 15.7273 23.2791 15.7813 23.2271 15.821C23.1751 15.8606 23.1125 15.8842 23.0471 15.8886C22.9817 15.893 22.9164 15.8781 22.8595 15.8458L19.8313 14.1096C19.7551 14.0657 19.6995 13.9936 19.6767 13.9091C19.6539 13.8246 19.6658 13.7345 19.7097 13.6587C19.7538 13.5829 19.8264 13.5276 19.9115 13.5049C19.9967 13.4823 20.0874 13.4941 20.1638 13.5379L23.1909 15.2741C23.2288 15.2956 23.2621 15.3245 23.2887 15.3589C23.3153 15.3933 23.3348 15.4327 23.3459 15.4746ZM18.1621 1.2324L20.4564 3.51116H18.1621V1.2324ZM4.72725 20.993V0.722222H17.4349V3.87111C17.4349 3.96688 17.4732 4.05873 17.5414 4.12646C17.6095 4.19418 17.702 4.23222 17.7985 4.23222H20.9693V13.1664L20.5259 12.9122C20.2824 12.7731 19.9933 12.7355 19.722 12.8077C19.4506 12.88 19.2192 13.0561 19.0784 13.2976C18.9831 13.4618 18.9342 13.6485 18.9368 13.8381C18.9394 14.0276 18.9935 14.2129 19.0933 14.3745L16.4461 18.9292C16.21 18.9221 15.9782 18.9936 15.7877 19.1323C15.5972 19.271 15.4588 19.469 15.3946 19.6948C15.3304 19.9205 15.344 20.1612 15.4333 20.3784C15.5225 20.5956 15.6823 20.7769 15.8873 20.8936L16.0618 20.9944L4.72725 20.993ZM19.7341 21.8822C19.6896 21.9575 19.617 22.0124 19.532 22.035C19.447 22.0576 19.3565 22.0461 19.28 22.0029L16.2518 20.2667C16.1887 20.23 16.1396 20.1738 16.112 20.1066C16.0843 20.0394 16.0797 19.9651 16.0988 19.8951C16.118 19.825 16.1598 19.7632 16.2178 19.7191C16.2758 19.675 16.3468 19.6511 16.4199 19.6511C16.4776 19.651 16.5344 19.6661 16.5843 19.695L19.6125 21.4312C19.6884 21.4754 19.7438 21.5475 19.7665 21.6319C19.7893 21.7163 19.7776 21.8062 19.7341 21.8822ZM20.4497 20.993L20.9707 20.0974V20.993H20.4497ZM28.2333 22.6503C28.1936 22.7186 28.1282 22.7684 28.0515 22.7888C27.9748 22.8093 27.8931 22.7986 27.8243 22.7592L21.5234 19.1464L21.8236 18.6316L28.1236 22.2444C28.192 22.2842 28.2418 22.3491 28.2624 22.425C28.2829 22.501 28.2724 22.582 28.2333 22.6503ZM21.3291 23.8018H14.1375C13.8446 23.8025 13.5638 23.9184 13.3566 24.1241C13.1495 24.3299 13.0328 24.6087 13.0321 24.8996V25.6389C13.0321 25.7344 13.0702 25.826 13.1381 25.8937C13.206 25.9614 13.2981 25.9996 13.3943 26H22.0732C22.1697 26 22.2622 25.962 22.3303 25.8942C22.3985 25.8265 22.4368 25.7347 22.4368 25.6389V24.9022C22.4368 24.6104 22.3202 24.3306 22.1124 24.1242C21.9047 23.9179 21.6229 23.8019 21.3291 23.8018ZM21.7073 25.2778H13.7579V24.9022C13.7584 24.8028 13.7984 24.7076 13.8692 24.6372C13.9401 24.5669 14.0359 24.5272 14.1361 24.5267H21.3291C21.4293 24.5271 21.5252 24.5668 21.596 24.6372C21.6668 24.7075 21.7068 24.8028 21.7073 24.9022V25.2778Z" fill="black"/>
</g>
</svg>
