<svg width="24" height="24" viewBox="0 0 24 24" fill="none" xmlns="http://www.w3.org/2000/svg">
<path d="M18.001 10.5003V19.1253C18.001 19.3716 17.9525 19.6154 17.8583 19.8429C17.764 20.0704 17.6259 20.2771 17.4518 20.4512C17.2777 20.6253 17.071 20.7634 16.8435 20.8576C16.616 20.9518 16.3722 21.0003 16.126 21.0003H4.87598C4.3787 21.0003 3.90178 20.8028 3.55015 20.4512C3.19852 20.0995 3.00098 19.6226 3.00098 19.1253V7.87534C3.00098 7.37805 3.19852 6.90114 3.55015 6.54951C3.90178 6.19788 4.3787 6.00034 4.87598 6.00034H12.7266" stroke="#264653" strokeWidth="1.00189" strokeLinecap="round" strokeLinejoin="round"/>
<path d="M21.5688 2.49735C21.5 2.42173 21.4166 2.36084 21.3235 2.31837C21.2305 2.27591 21.1299 2.25274 21.0276 2.25028C20.9254 2.24781 20.8237 2.2661 20.7288 2.30403C20.6338 2.34196 20.5475 2.39876 20.4751 2.47097L19.8925 3.05079C19.8219 3.12144 19.7822 3.21725 19.7822 3.31714C19.7822 3.41704 19.8219 3.51284 19.8925 3.5835L20.4266 4.11668C20.4616 4.15186 20.5033 4.17977 20.5491 4.19882C20.5949 4.21786 20.6441 4.22767 20.6937 4.22767C20.7433 4.22767 20.7925 4.21786 20.8383 4.19882C20.8841 4.17977 20.9257 4.15186 20.9608 4.11668L21.5288 3.55147C21.8161 3.26462 21.843 2.79738 21.5688 2.49735Z" fill="#264653"/>
<path d="M18.7194 4.21854L10.2563 12.6666C10.205 12.7177 10.1677 12.7812 10.148 12.8509L9.75658 14.0168C9.7472 14.0485 9.74654 14.082 9.75466 14.114C9.76278 14.146 9.77938 14.1752 9.80271 14.1985C9.82605 14.2219 9.85524 14.2385 9.88723 14.2466C9.91921 14.2547 9.95279 14.254 9.98443 14.2447L11.1494 13.8532C11.2191 13.8335 11.2826 13.7962 11.3337 13.7449L19.7818 5.28088C19.8599 5.20189 19.9038 5.09525 19.9038 4.98412C19.9038 4.87299 19.8599 4.76635 19.7818 4.68736L19.3153 4.21854C19.2362 4.13967 19.1291 4.09538 19.0174 4.09538C18.9057 4.09538 18.7985 4.13967 18.7194 4.21854Z" fill="#264653"/>
</svg>
