<svg width="25" height="25" viewBox="0 0 25 25" fill="none" xmlns="http://www.w3.org/2000/svg">
<path d="M18.2116 10.7455V19.3705C18.2116 19.6167 18.1631 19.8605 18.0688 20.088C17.9746 20.3155 17.8365 20.5222 17.6624 20.6963C17.4883 20.8704 17.2816 21.0085 17.0541 21.1028C16.8266 21.197 16.5828 21.2455 16.3365 21.2455H5.08655C4.58927 21.2455 4.11235 21.0479 3.76072 20.6963C3.40909 20.3447 3.21155 19.8678 3.21155 19.3705V8.12048C3.21155 7.6232 3.40909 7.14629 3.76072 6.79466C4.11235 6.44303 4.58927 6.24548 5.08655 6.24548H12.9372" stroke="white" strokeWidth="1.00189" strokeLinecap="round" strokeLinejoin="round"/>
<path d="M21.7795 2.74241C21.7107 2.66679 21.6272 2.6059 21.5342 2.56343C21.4412 2.52097 21.3405 2.4978 21.2383 2.49534C21.1361 2.49287 21.0344 2.51116 20.9395 2.54909C20.8445 2.58702 20.7582 2.64382 20.6858 2.71603L20.1032 3.29585C20.0326 3.3665 19.9929 3.46231 19.9929 3.5622C19.9929 3.6621 20.0326 3.7579 20.1032 3.82856L20.6373 4.36174C20.6723 4.39692 20.714 4.42483 20.7598 4.44388C20.8056 4.46292 20.8548 4.47273 20.9044 4.47273C20.954 4.47273 21.0032 4.46292 21.049 4.44388C21.0948 4.42483 21.1364 4.39692 21.1714 4.36174L21.7395 3.79653C22.0268 3.50968 22.0536 3.04244 21.7795 2.74241Z" fill="white"/>
<path d="M18.9302 4.46362L10.4671 12.9117C10.4158 12.9628 10.3785 13.0263 10.3588 13.0959L9.96734 14.2619C9.95796 14.2935 9.95729 14.3271 9.96541 14.3591C9.97353 14.3911 9.99013 14.4203 10.0135 14.4436C10.0368 14.4669 10.066 14.4835 10.098 14.4917C10.13 14.4998 10.1635 14.4991 10.1952 14.4897L11.3602 14.0983C11.4299 14.0786 11.4933 14.0413 11.5444 13.99L19.9925 5.52596C20.0707 5.44696 20.1145 5.34032 20.1145 5.22919C20.1145 5.11807 20.0707 5.01143 19.9925 4.93243L19.526 4.46362C19.4469 4.38475 19.3398 4.34045 19.2281 4.34045C19.1164 4.34045 19.0093 4.38475 18.9302 4.46362Z" fill="white"/>
</svg>
