<svg width="26" height="26" viewBox="0 0 26 26" fill="none" xmlns="http://www.w3.org/2000/svg">
<path id="Vector" d="M16.968 4.73904V4.35755C16.968 4.27047 17.0389 4.19954 17.126 4.19954H17.5075C17.5946 4.19954 17.6655 4.27047 17.6655 4.35755V4.73904C17.6655 4.82612 17.5946 4.89706 17.5075 4.89706H17.126C17.0389 4.89706 16.968 4.82612 16.968 4.73904ZM17.126 6.37572H17.5075C17.5946 6.37572 17.6655 6.30479 17.6655 6.2177V5.83622C17.6655 5.74914 17.5946 5.6782 17.5075 5.6782H17.126C17.0389 5.6782 16.968 5.74914 16.968 5.83622V6.2177C16.968 6.30479 17.0389 6.37572 17.126 6.37572ZM17.126 7.85409H17.5075C17.5946 7.85409 17.6655 7.78316 17.6655 7.69608V7.31459C17.6655 7.22751 17.5946 7.15657 17.5075 7.15657H17.126C17.0389 7.15657 16.968 7.22751 16.968 7.31459V7.69608C16.968 7.78316 17.0389 7.85409 17.126 7.85409ZM17.126 9.33276H17.5075C17.5946 9.33276 17.6655 9.26182 17.6655 9.17474V8.79325C17.6655 8.70617 17.5946 8.63524 17.5075 8.63524H17.126C17.0389 8.63524 16.968 8.70617 16.968 8.79325V9.17474C16.968 9.26182 17.0389 9.33276 17.126 9.33276ZM18.5323 3.4184H18.9138C19.0009 3.4184 19.0718 3.34746 19.0718 3.26038V2.87889C19.0718 2.79181 19.0009 2.72088 18.9138 2.72088H18.5323C18.4452 2.72088 18.3743 2.79181 18.3743 2.87889V3.26038C18.3743 3.34746 18.4452 3.4184 18.5323 3.4184ZM18.5323 4.89706H18.9138C19.0009 4.89706 19.0718 4.82612 19.0718 4.73904V4.35755C19.0718 4.27047 19.0009 4.19954 18.9138 4.19954H18.5323C18.4452 4.19954 18.3743 4.27047 18.3743 4.35755V4.73904C18.3743 4.82612 18.4452 4.89706 18.5323 4.89706ZM18.5323 6.37572H18.9138C19.0009 6.37572 19.0718 6.30479 19.0718 6.2177V5.83622C19.0718 5.74914 19.0009 5.6782 18.9138 5.6782H18.5323C18.4452 5.6782 18.3743 5.74914 18.3743 5.83622V6.2177C18.3743 6.30479 18.4452 6.37572 18.5323 6.37572ZM18.5323 7.85409H18.9138C19.0009 7.85409 19.0718 7.78316 19.0718 7.69608V7.31459C19.0718 7.22751 19.0009 7.15657 18.9138 7.15657H18.5323C18.4452 7.15657 18.3743 7.22751 18.3743 7.31459V7.69608C18.3743 7.78316 18.4452 7.85409 18.5323 7.85409ZM18.5323 9.33276H18.9138C19.0009 9.33276 19.0718 9.26182 19.0718 9.17474V8.79325C19.0718 8.70617 19.0009 8.63524 18.9138 8.63524H18.5323C18.4452 8.63524 18.3743 8.70617 18.3743 8.79325V9.17474C18.3743 9.26182 18.4452 9.33276 18.5323 9.33276ZM17.126 3.4184H17.5075C17.5946 3.4184 17.6655 3.34746 17.6655 3.26038V2.87889C17.6655 2.79181 17.5946 2.72088 17.5075 2.72088H17.126C17.0389 2.72088 16.968 2.79181 16.968 2.87889V3.26038C16.968 3.34746 17.0389 3.4184 17.126 3.4184ZM8.87399 7.15686H8.4925C8.40542 7.15686 8.33449 7.2278 8.33449 7.31488V7.69637C8.33449 7.78345 8.40542 7.85438 8.4925 7.85438H8.87399C8.96107 7.85438 9.03201 7.78345 9.03201 7.69637V7.31488C9.03201 7.2278 8.96107 7.15686 8.87399 7.15686ZM8.87399 4.19983H8.4925C8.40542 4.19983 8.33449 4.27076 8.33449 4.35784V4.73933C8.33449 4.82641 8.40542 4.89735 8.4925 4.89735H8.87399C8.96107 4.89735 9.03201 4.82641 9.03201 4.73933V4.35784C9.03201 4.27076 8.96107 4.19983 8.87399 4.19983ZM8.87399 2.72117H8.4925C8.40542 2.72117 8.33449 2.7921 8.33449 2.87918V3.26067C8.33449 3.34775 8.40542 3.41869 8.4925 3.41869H8.87399C8.96107 3.41869 9.03201 3.34775 9.03201 3.26067V2.87889C9.03201 2.7921 8.96107 2.72117 8.87399 2.72117ZM7.4677 8.63552H7.08622C6.99914 8.63552 6.9282 8.70646 6.9282 8.79354V9.17503C6.9282 9.26211 6.99914 9.33305 7.08622 9.33305H7.4677C7.55479 9.33305 7.62572 9.26211 7.62572 9.17503V8.79354C7.62572 8.70646 7.55479 8.63552 7.4677 8.63552ZM7.4677 7.15686H7.08622C6.99914 7.15686 6.9282 7.2278 6.9282 7.31488V7.69637C6.9282 7.78345 6.99914 7.85438 7.08622 7.85438H7.4677C7.55479 7.85438 7.62572 7.78345 7.62572 7.69637V7.31488C7.62572 7.2278 7.55479 7.15686 7.4677 7.15686ZM8.87399 8.63552H8.4925C8.40542 8.63552 8.33449 8.70646 8.33449 8.79354V9.17503C8.33449 9.26211 8.40542 9.33305 8.4925 9.33305H8.87399C8.96107 9.33305 9.03201 9.26211 9.03201 9.17503V8.79354C9.03201 8.70646 8.96107 8.63552 8.87399 8.63552ZM7.4677 5.6782H7.08622C6.99914 5.6782 6.9282 5.74914 6.9282 5.83622V6.2177C6.9282 6.30479 6.99914 6.37572 7.08622 6.37572H7.4677C7.55479 6.37572 7.62572 6.30479 7.62572 6.2177V5.83622C7.62572 5.74914 7.55479 5.6782 7.4677 5.6782ZM7.4677 2.72117H7.08622C6.99914 2.72117 6.9282 2.7921 6.9282 2.87918V3.26067C6.9282 3.34775 6.99914 3.41869 7.08622 3.41869H7.4677C7.55479 3.41869 7.62572 3.34775 7.62572 3.26067V2.87889C7.62572 2.7921 7.55479 2.72117 7.4677 2.72117ZM7.4677 4.19983H7.08622C6.99914 4.19983 6.9282 4.27076 6.9282 4.35784V4.73933C6.9282 4.82641 6.99914 4.89735 7.08622 4.89735H7.4677C7.55479 4.89735 7.62572 4.82641 7.62572 4.73933V4.35784C7.62572 4.27076 7.55479 4.19983 7.4677 4.19983ZM8.87399 5.6782H8.4925C8.40542 5.6782 8.33449 5.74914 8.33449 5.83622V6.2177C8.33449 6.30479 8.40542 6.37572 8.4925 6.37572H8.87399C8.96107 6.37572 9.03201 6.30479 9.03201 6.2177V5.83622C9.03201 5.74914 8.96107 5.6782 8.87399 5.6782ZM12.8091 7.85409H13.1906C13.2777 7.85409 13.3486 7.78316 13.3486 7.69608V7.31459C13.3486 7.22751 13.2777 7.15657 13.1906 7.15657H12.8091C12.722 7.15657 12.6511 7.22751 12.6511 7.31459V7.69608C12.6514 7.78316 12.7223 7.85409 12.8091 7.85409ZM12.8091 6.37572H13.1906C13.2777 6.37572 13.3486 6.30479 13.3486 6.2177V5.83622C13.3486 5.74914 13.2777 5.6782 13.1906 5.6782H12.8091C12.722 5.6782 12.6511 5.74914 12.6511 5.83622V6.2177C12.6514 6.30479 12.7223 6.37572 12.8091 6.37572ZM12.8091 9.33276H13.1906C13.2777 9.33276 13.3486 9.26182 13.3486 9.17474V8.79325C13.3486 8.70617 13.2777 8.63524 13.1906 8.63524H12.8091C12.722 8.63524 12.6511 8.70617 12.6511 8.79325V9.17474C12.6514 9.26182 12.7223 9.33276 12.8091 9.33276ZM12.8091 1.93973H13.1906C13.2777 1.93973 13.3486 1.8688 13.3486 1.78172V1.40052C13.3486 1.31344 13.2777 1.2425 13.1906 1.2425H12.8091C12.722 1.2425 12.6511 1.31344 12.6511 1.40052V1.78201C12.6514 1.8688 12.7223 1.93973 12.8091 1.93973ZM12.8091 3.4184H13.1906C13.2777 3.4184 13.3486 3.34746 13.3486 3.26038V2.87889C13.3486 2.79181 13.2777 2.72088 13.1906 2.72088H12.8091C12.722 2.72088 12.6511 2.79181 12.6511 2.87889V3.26038C12.6514 3.34746 12.7223 3.4184 12.8091 3.4184ZM12.8091 4.89706H13.1906C13.2777 4.89706 13.3486 4.82612 13.3486 4.73904V4.35755C13.3486 4.27047 13.2777 4.19954 13.1906 4.19954H12.8091C12.722 4.19954 12.6511 4.27047 12.6511 4.35755V4.73904C12.6514 4.82612 12.7223 4.89706 12.8091 4.89706ZM11.3241 6.37572H11.7056C11.7927 6.37572 11.8636 6.30479 11.8636 6.2177V5.83622C11.8636 5.74914 11.7927 5.6782 11.7056 5.6782H11.3241C11.237 5.6782 11.1661 5.74914 11.1661 5.83622V6.2177C11.1661 6.30479 11.237 6.37572 11.3241 6.37572ZM11.3241 4.89706H11.7056C11.7927 4.89706 11.8636 4.82612 11.8636 4.73904V4.35755C11.8636 4.27047 11.7927 4.19954 11.7056 4.19954H11.3241C11.237 4.19954 11.1661 4.27047 11.1661 4.35755V4.73904C11.1661 4.82612 11.237 4.89706 11.3241 4.89706ZM11.3241 1.93973H11.7056C11.7927 1.93973 11.8636 1.8688 11.8636 1.78172V1.40052C11.8636 1.31344 11.7927 1.2425 11.7056 1.2425H11.3241C11.237 1.2425 11.1661 1.31344 11.1661 1.40052V1.78201C11.1661 1.8688 11.237 1.93973 11.3241 1.93973ZM11.3241 3.4184H11.7056C11.7927 3.4184 11.8636 3.34746 11.8636 3.26038V2.87889C11.8636 2.79181 11.7927 2.72088 11.7056 2.72088H11.3241C11.237 2.72088 11.1661 2.79181 11.1661 2.87889V3.26038C11.1661 3.34746 11.237 3.4184 11.3241 3.4184ZM14.2944 3.4184H14.6759C14.763 3.4184 14.8339 3.34746 14.8339 3.26038V2.87889C14.8339 2.79181 14.763 2.72088 14.6759 2.72088H14.2944C14.2073 2.72088 14.1364 2.79181 14.1364 2.87889V3.26038C14.1364 3.34746 14.2073 3.4184 14.2944 3.4184ZM14.2944 1.93973H14.6759C14.763 1.93973 14.8339 1.8688 14.8339 1.78172V1.40052C14.8339 1.31344 14.763 1.2425 14.6759 1.2425H14.2944C14.2073 1.2425 14.1364 1.31344 14.1364 1.40052V1.78201C14.1364 1.8688 14.2073 1.93973 14.2944 1.93973ZM14.2944 9.33276H14.6759C14.763 9.33276 14.8339 9.26182 14.8339 9.17474V8.79325C14.8339 8.70617 14.763 8.63524 14.6759 8.63524H14.2944C14.2073 8.63524 14.1364 8.70617 14.1364 8.79325V9.17474C14.1364 9.26182 14.2073 9.33276 14.2944 9.33276ZM11.7056 8.63552H11.3241C11.237 8.63552 11.1661 8.70646 11.1661 8.79354V9.17503C11.1661 9.26211 11.237 9.33305 11.3241 9.33305H11.7056C11.7927 9.33305 11.8636 9.26211 11.8636 9.17503V8.79354C11.8636 8.70646 11.7927 8.63552 11.7056 8.63552ZM11.7056 7.15686H11.3241C11.237 7.15686 11.1661 7.2278 11.1661 7.31488V7.69637C11.1661 7.78345 11.237 7.85438 11.3241 7.85438H11.7056C11.7927 7.85438 11.8636 7.78345 11.8636 7.69637V7.31488C11.8636 7.2278 11.7927 7.15686 11.7056 7.15686ZM14.2944 7.85409H14.6759C14.763 7.85409 14.8339 7.78316 14.8339 7.69608V7.31459C14.8339 7.22751 14.763 7.15657 14.6759 7.15657H14.2944C14.2073 7.15657 14.1364 7.22751 14.1364 7.31459V7.69608C14.1364 7.78316 14.2073 7.85409 14.2944 7.85409ZM14.2944 6.37572H14.6759C14.763 6.37572 14.8339 6.30479 14.8339 6.2177V5.83622C14.8339 5.74914 14.763 5.6782 14.6759 5.6782H14.2944C14.2073 5.6782 14.1364 5.74914 14.1364 5.83622V6.2177C14.1364 6.30479 14.2073 6.37572 14.2944 6.37572ZM14.2944 4.89706H14.6759C14.763 4.89706 14.8339 4.82612 14.8339 4.73904V4.35755C14.8339 4.27047 14.763 4.19954 14.6759 4.19954H14.2944C14.2073 4.19954 14.1364 4.27047 14.1364 4.35755V4.73904C14.1364 4.82612 14.2073 4.89706 14.2944 4.89706ZM1.55998 21.8515H1.94146C2.02855 21.8515 2.09948 21.7806 2.09948 21.6935V21.312C2.09948 21.2249 2.02855 21.154 1.94146 21.154H1.55998C1.4729 21.154 1.40196 21.2249 1.40196 21.312V21.6935C1.40196 21.7806 1.4729 21.8515 1.55998 21.8515ZM1.55998 20.3728H1.94146C2.02855 20.3728 2.09948 20.3019 2.09948 20.2148V19.8333C2.09948 19.7463 2.02855 19.6753 1.94146 19.6753H1.55998C1.4729 19.6753 1.40196 19.7463 1.40196 19.8333V20.2148C1.40196 20.3019 1.4729 20.3728 1.55998 20.3728ZM1.55998 18.8942H1.94146C2.02855 18.8942 2.09948 18.8232 2.09948 18.7362V18.3547C2.09948 18.2676 2.02855 18.1967 1.94146 18.1967H1.55998C1.4729 18.1967 1.40196 18.2676 1.40196 18.3547V18.7362C1.40196 18.8232 1.4729 18.8942 1.55998 18.8942ZM1.55998 24.8085H1.94146C2.02855 24.8085 2.09948 24.7376 2.09948 24.6505V24.269C2.09948 24.1819 2.02855 24.111 1.94146 24.111H1.55998C1.4729 24.111 1.40196 24.1819 1.40196 24.269V24.6505C1.40196 24.7376 1.4729 24.8085 1.55998 24.8085ZM1.55998 23.3299H1.94146C2.02855 23.3299 2.09948 23.2589 2.09948 23.1719V22.7904C2.09948 22.7033 2.02855 22.6324 1.94146 22.6324H1.55998C1.4729 22.6324 1.40196 22.7033 1.40196 22.7904V23.1719C1.40196 23.2592 1.4729 23.3299 1.55998 23.3299ZM2.96626 24.8085H3.34775C3.43483 24.8085 3.50577 24.7376 3.50577 24.6505V24.269C3.50577 24.1819 3.43483 24.111 3.34775 24.111H2.96626C2.87918 24.111 2.80825 24.1819 2.80825 24.269V24.6505C2.80825 24.7376 2.87918 24.8085 2.96626 24.8085ZM2.96626 20.3728H3.34775C3.43483 20.3728 3.50577 20.3019 3.50577 20.2148V19.8333C3.50577 19.7463 3.43483 19.6753 3.34775 19.6753H2.96626C2.87918 19.6753 2.80825 19.7463 2.80825 19.8333V20.2148C2.80825 20.3019 2.87918 20.3728 2.96626 20.3728ZM2.96626 18.8942H3.34775C3.43483 18.8942 3.50577 18.8232 3.50577 18.7362V18.3547C3.50577 18.2676 3.43483 18.1967 3.34775 18.1967H2.96626C2.87918 18.1967 2.80825 18.2676 2.80825 18.3547V18.7362C2.80825 18.8232 2.87918 18.8942 2.96626 18.8942ZM2.96626 23.3299H3.34775C3.43483 23.3299 3.50577 23.2589 3.50577 23.1719V22.7904C3.50577 22.7033 3.43483 22.6324 3.34775 22.6324H2.96626C2.87918 22.6324 2.80825 22.7033 2.80825 22.7904V23.1719C2.80825 23.2592 2.87918 23.3299 2.96626 23.3299ZM2.96626 21.8515H3.34775C3.43483 21.8515 3.50577 21.7806 3.50577 21.6935V21.312C3.50577 21.2249 3.43483 21.154 3.34775 21.154H2.96626C2.87918 21.154 2.80825 21.2249 2.80825 21.312V21.6935C2.80825 21.7806 2.87918 21.8515 2.96626 21.8515ZM7.66465 21.154H7.28316C7.19608 21.154 7.12514 21.2249 7.12514 21.312V21.6935C7.12514 21.7806 7.19608 21.8515 7.28316 21.8515H7.66465C7.75173 21.8515 7.82266 21.7806 7.82266 21.6935V21.312C7.82238 21.2249 7.75144 21.154 7.66465 21.154ZM7.66465 19.6756H7.28316C7.19608 19.6756 7.12514 19.7465 7.12514 19.8336V20.2151C7.12514 20.3022 7.19608 20.3731 7.28316 20.3731H7.66465C7.75173 20.3731 7.82266 20.3022 7.82266 20.2151V19.8336C7.82238 19.7465 7.75144 19.6756 7.66465 19.6756ZM7.66465 22.6326H7.28316C7.19608 22.6326 7.12514 22.7036 7.12514 22.7907V23.1721C7.12514 23.2592 7.19608 23.3302 7.28316 23.3302H7.66465C7.75173 23.3302 7.82266 23.2592 7.82266 23.1721V22.7907C7.82238 22.7036 7.75144 22.6326 7.66465 22.6326ZM7.66465 24.1113H7.28316C7.19608 24.1113 7.12514 24.1822 7.12514 24.2693V24.6508C7.12514 24.7379 7.19608 24.8088 7.28316 24.8088H7.66465C7.75173 24.8088 7.82266 24.7379 7.82266 24.6508V24.2693C7.82238 24.1822 7.75144 24.1113 7.66465 24.1113ZM7.66465 18.1969H7.28316C7.19608 18.1969 7.12514 18.2679 7.12514 18.355V18.7364C7.12514 18.8235 7.19608 18.8945 7.28316 18.8945H7.66465C7.75173 18.8945 7.82266 18.8235 7.82266 18.7364V18.3547C7.82238 18.2679 7.75144 18.1969 7.66465 18.1969ZM9.14965 22.6326H8.76817C8.68108 22.6326 8.61015 22.7036 8.61015 22.7907V23.1721C8.61015 23.2592 8.68108 23.3302 8.76817 23.3302H9.14965C9.23674 23.3302 9.30767 23.2592 9.30767 23.1721V22.7907C9.30767 22.7036 9.23674 22.6326 9.14965 22.6326ZM7.66465 16.7183H7.28316C7.19608 16.7183 7.12514 16.7892 7.12514 16.8763V17.2578C7.12514 17.3449 7.19608 17.4158 7.28316 17.4158H7.66465C7.75173 17.4158 7.82266 17.3449 7.82266 17.2578V16.8763C7.82238 16.7892 7.75144 16.7183 7.66465 16.7183ZM9.14965 21.154H8.76817C8.68108 21.154 8.61015 21.2249 8.61015 21.312V21.6935C8.61015 21.7806 8.68108 21.8515 8.76817 21.8515H9.14965C9.23674 21.8515 9.30767 21.7806 9.30767 21.6935V21.312C9.30767 21.2249 9.23674 21.154 9.14965 21.154ZM9.14965 24.1113H8.76817C8.68108 24.1113 8.61015 24.1822 8.61015 24.2693V24.6508C8.61015 24.7379 8.68108 24.8088 8.76817 24.8088H9.14965C9.23674 24.8088 9.30767 24.7379 9.30767 24.6508V24.2693C9.30767 24.1822 9.23674 24.1113 9.14965 24.1113ZM6.17935 24.1113H5.79787C5.71078 24.1113 5.63985 24.1822 5.63985 24.2693V24.6508C5.63985 24.7379 5.71078 24.8088 5.79787 24.8088H6.17935C6.26644 24.8088 6.33737 24.7379 6.33737 24.6508V24.2693C6.33737 24.1822 6.26644 24.1113 6.17935 24.1113ZM9.14965 19.6756H8.76817C8.68108 19.6756 8.61015 19.7465 8.61015 19.8336V20.2151C8.61015 20.3022 8.68108 20.3731 8.76817 20.3731H9.14965C9.23674 20.3731 9.30767 20.3022 9.30767 20.2151V19.8336C9.30767 19.7465 9.23674 19.6756 9.14965 19.6756ZM9.14965 18.1969H8.76817C8.68108 18.1969 8.61015 18.2679 8.61015 18.355V18.7364C8.61015 18.8235 8.68108 18.8945 8.76817 18.8945H9.14965C9.23674 18.8945 9.30767 18.8235 9.30767 18.7364V18.3547C9.30767 18.2679 9.23674 18.1969 9.14965 18.1969ZM6.17935 22.6326H5.79787C5.71078 22.6326 5.63985 22.7036 5.63985 22.7907V23.1721C5.63985 23.2592 5.71078 23.3302 5.79787 23.3302H6.17935C6.26644 23.3302 6.33737 23.2592 6.33737 23.1721V22.7907C6.33737 22.7036 6.26644 22.6326 6.17935 22.6326ZM6.17935 16.7183H5.79787C5.71078 16.7183 5.63985 16.7892 5.63985 16.8763V17.2578C5.63985 17.3449 5.71078 17.4158 5.79787 17.4158H6.17935C6.26644 17.4158 6.33737 17.3449 6.33737 17.2578V16.8763C6.33737 16.7892 6.26644 16.7183 6.17935 16.7183ZM9.14965 16.7183H8.76817C8.68108 16.7183 8.61015 16.7892 8.61015 16.8763V17.2578C8.61015 17.3449 8.68108 17.4158 8.76817 17.4158H9.14965C9.23674 17.4158 9.30767 17.3449 9.30767 17.2578V16.8763C9.30767 16.7892 9.23674 16.7183 9.14965 16.7183ZM6.17935 18.1969H5.79787C5.71078 18.1969 5.63985 18.2679 5.63985 18.355V18.7364C5.63985 18.8235 5.71078 18.8945 5.79787 18.8945H6.17935C6.26644 18.8945 6.33737 18.8235 6.33737 18.7364V18.355C6.33737 18.2679 6.26644 18.1969 6.17935 18.1969ZM6.17935 21.154H5.79787C5.71078 21.154 5.63985 21.2249 5.63985 21.312V21.6935C5.63985 21.7806 5.71078 21.8515 5.79787 21.8515H6.17935C6.26644 21.8515 6.33737 21.7806 6.33737 21.6935V21.312C6.33737 21.2249 6.26644 21.154 6.17935 21.154ZM6.17935 19.6756H5.79787C5.71078 19.6756 5.63985 19.7465 5.63985 19.8336V20.2151C5.63985 20.3022 5.71078 20.3731 5.79787 20.3731H6.17935C6.26644 20.3731 6.33737 20.3022 6.33737 20.2151V19.8336C6.33737 19.7465 6.26644 19.6756 6.17935 19.6756ZM26 17.374V25.6315C26 25.8351 25.8351 26 25.6315 26H21.4608C21.2572 26 21.0923 25.8351 21.0923 25.6315V17.374C21.0923 17.1704 21.2572 17.0055 21.4608 17.0055H23.1125V13.7128H2.88754V17.0055H4.1707V15.8443C4.1707 15.6407 4.33564 15.4758 4.53922 15.4758H10.4083C10.6119 15.4758 10.7768 15.6407 10.7768 15.8443V25.6315C10.7768 25.8351 10.6119 26 10.4083 26H0.368512C0.164937 26 0 25.8351 0 25.6315V17.374C0 17.1704 0.164937 17.0055 0.368512 17.0055H2.15052V13.3446C2.15052 13.141 2.31546 12.9761 2.51903 12.9761H12.6315V10.5239H5.89475C5.69118 10.5239 5.52624 10.359 5.52624 10.1554V1.89821C5.52624 1.69464 5.69118 1.5297 5.89475 1.5297H9.69694V0.368512C9.69694 0.164937 9.86188 0 10.0655 0H15.9345C16.1381 0 16.3031 0.164937 16.3031 0.368512V1.5297H20.1052C20.3088 1.5297 20.4738 1.69464 20.4738 1.89821V10.1557C20.4738 10.3593 20.3088 10.5242 20.1052 10.5242H13.3685V12.9764H23.481C23.6845 12.9764 23.8495 13.1413 23.8495 13.3449V17.0061H25.6315C25.8348 17.0055 26 17.1704 26 17.374ZM16.3031 2.26672V9.7872H19.7367V2.26672H16.3031ZM10.434 0.737024V9.7872H15.5663V0.737024H10.434ZM6.26326 9.7872H9.69694V2.26672H6.26326V9.7872ZM4.90744 25.263H10.0398V16.2128H4.90744V25.263ZM4.1707 17.7425H0.737024V25.263H4.1707V17.7425ZM25.263 17.7425H21.8293V25.263H25.263V17.7425ZM24.0585 24.8085H24.44C24.5271 24.8085 24.598 24.7376 24.598 24.6505V24.269C24.598 24.1819 24.5271 24.111 24.44 24.111H24.0585C23.9715 24.111 23.9005 24.1819 23.9005 24.269V24.6505C23.9005 24.7376 23.9715 24.8085 24.0585 24.8085ZM22.6522 18.8942H23.0337C23.1208 18.8942 23.1918 18.8232 23.1918 18.7362V18.3547C23.1918 18.2676 23.1208 18.1967 23.0337 18.1967H22.6522C22.5652 18.1967 22.4942 18.2676 22.4942 18.3547V18.7362C22.4942 18.8232 22.5652 18.8942 22.6522 18.8942ZM24.0585 23.3299H24.44C24.5271 23.3299 24.598 23.2589 24.598 23.1719V22.7904C24.598 22.7033 24.5271 22.6324 24.44 22.6324H24.0585C23.9715 22.6324 23.9005 22.7033 23.9005 22.7904V23.1719C23.9005 23.2592 23.9715 23.3299 24.0585 23.3299ZM22.6522 21.8515H23.0337C23.1208 21.8515 23.1918 21.7806 23.1918 21.6935V21.312C23.1918 21.2249 23.1208 21.154 23.0337 21.154H22.6522C22.5652 21.154 22.4942 21.2249 22.4942 21.312V21.6935C22.4942 21.7806 22.5652 21.8515 22.6522 21.8515ZM22.6522 20.3728H23.0337C23.1208 20.3728 23.1918 20.3019 23.1918 20.2148V19.8333C23.1918 19.7463 23.1208 19.6753 23.0337 19.6753H22.6522C22.5652 19.6753 22.4942 19.7463 22.4942 19.8333V20.2148C22.4942 20.3019 22.5652 20.3728 22.6522 20.3728ZM22.6522 23.3299H23.0337C23.1208 23.3299 23.1918 23.2589 23.1918 23.1719V22.7904C23.1918 22.7033 23.1208 22.6324 23.0337 22.6324H22.6522C22.5652 22.6324 22.4942 22.7033 22.4942 22.7904V23.1719C22.4942 23.2592 22.5652 23.3299 22.6522 23.3299ZM22.6522 24.8085H23.0337C23.1208 24.8085 23.1918 24.7376 23.1918 24.6505V24.269C23.1918 24.1819 23.1208 24.111 23.0337 24.111H22.6522C22.5652 24.111 22.4942 24.1819 22.4942 24.269V24.6505C22.4942 24.7376 22.5652 24.8085 22.6522 24.8085ZM24.0585 21.8515H24.44C24.5271 21.8515 24.598 21.7806 24.598 21.6935V21.312C24.598 21.2249 24.5271 21.154 24.44 21.154H24.0585C23.9715 21.154 23.9005 21.2249 23.9005 21.312V21.6935C23.9005 21.7806 23.9715 21.8515 24.0585 21.8515ZM24.0585 18.8942H24.44C24.5271 18.8942 24.598 18.8232 24.598 18.7362V18.3547C24.598 18.2676 24.5271 18.1967 24.44 18.1967H24.0585C23.9715 18.1967 23.9005 18.2676 23.9005 18.3547V18.7362C23.9005 18.8232 23.9715 18.8942 24.0585 18.8942ZM24.0585 20.3728H24.44C24.5271 20.3728 24.598 20.3019 24.598 20.2148V19.8333C24.598 19.7463 24.5271 19.6753 24.44 19.6753H24.0585C23.9715 19.6753 23.9005 19.7463 23.9005 19.8333V20.2148C23.9005 20.3019 23.9715 20.3728 24.0585 20.3728Z" fill="#264653"/>
</svg>
