<svg width="27" height="32" viewBox="0 0 27 32" fill="none" xmlns="http://www.w3.org/2000/svg">
<path d="M3.11629 15.572C3.11629 10.5229 6.83849 6.33593 11.6823 5.58218V7.78628L17.9101 3.89262L11.6811 0V2.43355C5.11248 3.21126 0 8.802 0 15.5722C0 20.3307 2.53057 24.4962 6.3053 26.8276L9.36016 24.9213C5.69666 23.3939 3.11629 19.7809 3.11629 15.572Z" fill="#2A9D8F"/>
<path d="M20.1703 4.31836L17.1158 6.22746C20.7807 7.74898 23.3612 11.3629 23.3612 15.572C23.3612 20.6253 19.6397 24.8095 14.7957 25.5643V23.3592L8.56689 27.2544L14.7957 31.1467V28.7093C21.364 27.9342 26.4763 22.3441 26.4763 15.572C26.4765 10.8155 23.9459 6.65027 20.1703 4.31836Z" fill="#2A9D8F"/>
<path d="M13.9889 22.3818V20.6806C15.906 20.3464 16.9597 19.0787 16.9597 17.5936C16.9597 16.0917 16.1591 15.1751 14.1749 14.4723C12.755 13.9383 12.1702 13.5884 12.1702 13.0379C12.1702 12.5702 12.5201 12.1029 13.6066 12.1029C14.807 12.1029 15.5737 12.4854 16.0092 12.6709L16.4916 10.7847C15.9435 10.5183 15.1908 10.2852 14.0736 10.2358V8.7666H12.4374V10.3513C10.6544 10.7005 9.6187 11.8531 9.6187 13.3209C9.6187 14.9393 10.8375 15.7753 12.6248 16.3746C13.8575 16.7923 14.3912 17.1928 14.3912 17.8278C14.3912 18.4945 13.7416 18.8615 12.7906 18.8615C11.7064 18.8615 10.7213 18.5111 10.0215 18.1274L9.521 20.08C10.1529 20.4476 11.2391 20.7472 12.3561 20.7968V22.382L13.9889 22.3818Z" fill="#2A9D8F"/>
</svg>
