<svg width="26" height="26" viewBox="0 0 26 26" fill="none" xmlns="http://www.w3.org/2000/svg">
<circle cx="13" cy="13" r="13" fill="#EEEEEE"/>
<path d="M16.8477 12.3178C16.8477 12.8213 16.4039 13.2332 15.8615 13.2332H6.98615C6.44377 13.2332 6 12.8213 6 12.3178C6 11.8144 6.44377 11.4025 6.98615 11.4025H15.8615C16.4039 11.4025 16.8477 11.8144 16.8477 12.3178ZM6 8.65653C6 9.15996 6.44377 9.57186 6.98615 9.57186H15.8615C16.4039 9.57186 16.8477 9.15996 16.8477 8.65653C16.8477 8.15311 16.4039 7.74121 15.8615 7.74121H6.98615C6.44377 7.74121 6 8.15311 6 8.65653ZM12.9031 15.9791C12.9031 15.4757 12.4593 15.0638 11.9169 15.0638H6.98615C6.44377 15.0638 6 15.4757 6 15.9791C6 16.4825 6.44377 16.8944 6.98615 16.8944H11.9169C12.4593 16.8944 12.9031 16.4825 12.9031 15.9791ZM20.8021 14.0295L21.5023 13.3796C21.5935 13.2947 21.7019 13.2274 21.8212 13.1815C21.9405 13.1356 22.0684 13.1119 22.1975 13.1119C22.3267 13.1119 22.4546 13.1356 22.5739 13.1815C22.6932 13.2274 22.8015 13.2947 22.8928 13.3796L23.5929 14.0295C23.9775 14.3865 23.9775 14.9631 23.5929 15.3201L22.8928 15.97L20.8021 14.0295ZM20.1019 14.6794L15.0134 19.4024C14.9247 19.4848 14.8754 19.5946 14.8754 19.7228V21.0134C14.8754 21.2697 15.0923 21.4711 15.3684 21.4711H16.7589C16.8871 21.4711 17.0153 21.4253 17.1041 21.3338L22.1926 16.6107L20.1019 14.6794Z" fill="#030229"/>
</svg>
