<svg width="33" height="33" viewBox="0 0 33 33" fill="none" xmlns="http://www.w3.org/2000/svg">
<path d="M31.9688 15.0393L31.8001 14.4139C31.7537 14.2443 30.8751 11.1093 28.3418 9.70675C30.6493 7.84999 31.1535 5.52039 31.1788 5.39768L31.3175 4.71757L30.7591 4.3293C30.609 4.22514 29.2215 3.30733 26.8728 3.30733C24.9764 3.30733 23.0118 3.90546 21.0329 5.08521C19.1266 6.22164 18.6641 8.02582 18.2562 9.61703C17.7375 11.6445 17.3157 13.2553 14.2312 13.9906C13.979 13.9593 13.7275 13.9223 13.4769 13.8797L14.5721 12.8485C14.5721 12.8485 12.1713 13.6219 11.2659 12.85C11.2143 12.8062 11.1571 12.7108 11.1612 12.5061C11.1695 12.1317 11.6727 8.76471 11.6737 7.78914C13.8213 7.28589 14.8804 5.07128 13.9667 4.51441C13.3217 4.12047 12.5106 5.14296 11.0091 5.47296C11.023 5.27547 11.0272 5.06561 11.006 4.83255C10.889 3.53008 12.7256 3.02632 12.5029 2.35497C12.2136 1.48408 9.8505 2.02136 8.71458 3.93846C8.57712 4.1754 8.47137 4.42937 8.40005 4.69385C8.34745 4.48873 8.27794 4.28833 8.19225 4.09469C7.66373 2.9036 9.31425 1.82697 8.80945 1.24741C8.14172 0.48119 6.19884 1.83264 5.742 4.02817C5.65188 4.48858 5.66421 4.96319 5.77809 5.4183C5.73272 5.3786 5.69508 5.33941 5.64558 5.29919C4.80614 4.62991 5.6595 3.21194 5.02992 2.95C4.13273 2.57514 3.32114 4.41953 3.80995 6.22267C3.91308 6.60217 4.12242 6.98219 4.39055 7.27249C2.69827 7.46378 1.44942 9.09264 1.39425 9.16689L1.03125 9.64849L1.61958 9.58094C1.62628 9.57991 1.76344 9.56547 1.97484 9.56547C2.2703 9.56547 2.67558 9.60053 3.07416 9.72016C2.51677 10.31 1.99392 11.0278 1.6665 11.8688C0.911109 13.8065 2.62556 12.8026 2.97464 12.8448C2.97464 12.8448 3.14016 13.0831 3.34847 13.2419C3.34641 13.3579 3.33764 13.4667 3.33764 13.5848C3.33764 15.0971 3.65062 19.4696 3.66403 19.6547L3.75787 20.9561L4.53544 19.9605C5.91473 23.9633 9.11883 27.2545 12.8783 28.0924C13.3475 28.6694 14.0745 29.2773 14.899 29.5346C13.6357 31.3315 11.2979 31.5094 11.2979 31.9689H18.4578C18.4578 31.494 17.1853 31.6074 16.3108 29.5465C17.2049 29.2448 18.0139 28.3595 18.5475 27.4773C20.9003 26.4146 22.8865 24.4139 24.1813 21.9956C25.541 22.4509 26.713 22.5154 26.8079 22.5195L27.556 22.552L27.7968 21.8203C27.836 21.7017 28.6105 19.3046 28.2944 17.0121C30.1826 16.6342 31.4335 15.523 31.4959 15.4668L31.9688 15.0393ZM3.47995 9.31797C3.0262 9.1375 2.55028 9.06892 2.17336 9.05346C2.66733 8.55433 3.59081 7.80152 4.65248 7.77316C4.48748 8.06242 4.33538 8.37438 4.19667 8.70902C3.9667 8.88639 3.72436 9.09007 3.47995 9.31797ZM4.33744 13.5843C4.33744 10.77 5.0258 8.78585 6.01013 7.54319C6.04519 7.51535 6.0818 7.48957 6.11686 7.45657C6.39942 7.19102 7.09964 6.77285 7.52555 6.65528C7.84317 6.56814 8.64033 6.60321 9.14048 6.95796C9.60042 7.28641 9.93816 7.86185 10.6095 7.89021C10.6306 7.89124 10.6502 7.88814 10.6714 7.88866C10.6523 8.82452 10.1712 12.042 10.1619 12.4829C10.1521 12.9165 10.2872 13.2924 10.5518 13.5708C10.7683 13.7988 11.0632 13.957 11.4335 14.0442L10.3202 14.8083L11.2334 15.9154L8.85947 15.6612L9.21216 17.7737L7.05581 16.1732L6.75881 18.6116L5.51306 17.0652L4.57256 18.2697C4.47563 16.8177 4.33744 14.5531 4.33744 13.5843ZM18.0098 26.5924L17.8566 26.659L17.772 26.8064C17.1574 27.8815 16.301 28.6317 15.6905 28.6317C15.0093 28.6317 14.1302 28.0883 13.5522 27.3112L13.4367 27.156L13.251 27.1184C9.5602 26.3769 6.42623 23.0197 5.27897 19.0081L5.52492 18.6941L7.46316 21.0995L7.83802 18.0238L10.6121 20.0842L10.0691 16.8281L13.4289 17.1885C12.0966 18.2099 11.4613 19.7542 11.7547 21.3588C12.0976 23.23 13.6275 24.6207 15.6518 24.9022C16.12 24.9672 16.5835 24.9997 17.0306 24.9997C20.5224 24.9997 22.175 23.0357 22.243 22.9516L22.4374 22.7149L22.3255 22.4267C22.0528 21.7234 21.4995 21.1913 21.0447 20.8484C22.0718 20.0084 22.6695 18.8715 22.6994 18.8142L22.9551 18.3213L22.458 18.098C21.961 17.8748 20.7457 17.7154 19.851 17.6226C20.0405 17.3631 20.2163 17.0937 20.3775 16.8157L20.7142 16.2232L20.0676 16.0562C20.0315 16.0464 19.1689 15.8272 17.9633 15.8272C16.466 15.8272 15.1351 16.1546 14.0085 16.8007C13.8404 16.8977 13.6873 17.0065 13.5352 17.1173L11.8099 15.0239L12.2641 14.7124C13.3165 14.9027 14.2251 15.0672 14.7979 15.0672C16.9311 15.0672 18.9338 14.4433 20.5435 13.9416C21.6892 13.5853 22.6787 13.2764 23.4052 13.2764C23.9245 13.2764 24.7933 13.2764 24.7933 15.7571C24.7928 20.3395 21.9398 24.896 18.0098 26.5924ZM18.8043 18.5647C19.5551 18.6214 20.7245 18.7446 21.468 18.8875C21.137 19.3613 20.5879 20.0223 19.883 20.4096L19.0126 20.8891L19.9031 21.33C19.9134 21.3351 20.8044 21.7832 21.2505 22.5169C20.7415 22.98 19.3798 23.9684 17.0295 23.9684C16.6268 23.9684 16.2082 23.9385 15.7848 23.8797C13.8543 23.6111 12.9448 22.3024 12.7365 21.1665C12.4859 19.7955 13.1588 18.4677 14.4942 17.7015C15.4708 17.1421 16.6377 16.858 17.9633 16.858C18.4042 16.858 18.795 16.891 19.1034 16.9301C18.9327 17.1715 18.7198 17.4458 18.4872 17.686L17.7174 18.4822L18.8043 18.5647ZM27.0507 16.1051C27.8773 18.3672 26.8491 21.4888 26.8491 21.4888C26.8491 21.4888 25.8318 21.4424 24.634 21.0665C25.3739 19.401 25.7926 17.5809 25.7926 15.7571C25.7926 14.2499 25.5451 12.2452 23.4042 12.2452C22.5297 12.2452 21.4753 12.5741 20.2537 12.9542C19.2859 13.2558 18.2407 13.5786 17.1353 13.7926C19.9201 11.6037 18.5388 7.76285 21.5325 5.97724C23.6486 4.71602 25.46 4.33807 26.8718 4.33807C28.9828 4.33807 30.1991 5.18421 30.1991 5.18421C30.1991 5.18421 29.5288 8.46049 25.7426 10.0703C29.5964 10.1038 30.8354 14.6908 30.8354 14.6908C30.8354 14.6908 29.2705 16.1051 27.0507 16.1051Z" fill="black"/>
<path d="M3.56074 8.59791C3.74584 8.59791 3.8959 8.52265 3.8959 8.42981C3.8959 8.33698 3.74584 8.26172 3.56074 8.26172C3.37564 8.26172 3.22559 8.33698 3.22559 8.42981C3.22559 8.52265 3.37564 8.59791 3.56074 8.59791Z" fill="black"/>
<path d="M6.36035 9.37109C6.78751 9.37109 7.13379 9.02481 7.13379 8.59766C7.13379 8.1705 6.78751 7.82422 6.36035 7.82422C5.93319 7.82422 5.58691 8.1705 5.58691 8.59766C5.58691 9.02481 5.93319 9.37109 6.36035 9.37109Z" fill="black"/>
</svg>
