<svg width="16" height="16" viewBox="0 0 16 16" fill="none" xmlns="http://www.w3.org/2000/svg">
<rect x="0.25" y="0.25" width="15.5" height="15.5" rx="1.75" stroke="black" stroke-width="0.5"/>
<path d="M3.00095 8.79986H6.60095C6.74594 8.79987 6.88602 8.85238 6.99529 8.94768C7.10456 9.04298 7.17563 9.17462 7.19535 9.31826L7.20095 9.39986V12.9999C7.2009 13.1519 7.14315 13.2982 7.03937 13.4093C6.93559 13.5204 6.79351 13.5879 6.64185 13.5983C6.49018 13.6086 6.34024 13.5611 6.22231 13.4651C6.10438 13.3692 6.02727 13.2321 6.00655 13.0815L6.00095 12.9999V10.8479L2.42495 14.4239C2.31775 14.5302 2.17438 14.5923 2.02346 14.5976C1.87254 14.6029 1.72516 14.5511 1.61075 14.4525C1.49633 14.354 1.42329 14.2159 1.4062 14.0658C1.38911 13.9158 1.42923 13.7648 1.51855 13.6431L1.57695 13.5759L5.15135 9.99986H3.00095C2.85596 9.99986 2.71588 9.94735 2.6066 9.85205C2.49733 9.75675 2.42627 9.62511 2.40655 9.48146L2.40095 9.39986C2.40096 9.25487 2.45346 9.11479 2.54876 9.00552C2.64406 8.89625 2.77571 8.82518 2.91935 8.80546L3.00095 8.79986ZM14.4249 1.57586C14.5266 1.67745 14.5883 1.81214 14.5991 1.95542C14.6098 2.09871 14.5687 2.24109 14.4833 2.35666L14.4249 2.42386L10.449 6.39986H13.0009C13.1459 6.39987 13.286 6.45238 13.3953 6.54768C13.5046 6.64298 13.5756 6.77462 13.5954 6.91826L13.601 6.99986C13.6009 7.14485 13.5484 7.28494 13.4531 7.39421C13.3578 7.50348 13.2262 7.57454 13.0825 7.59426L13.0009 7.59986H9.00095C8.85596 7.59986 8.71588 7.54735 8.60661 7.45205C8.49733 7.35675 8.42627 7.22511 8.40655 7.08146L8.40095 6.99986V2.99986C8.401 2.84784 8.45875 2.70151 8.56253 2.59043C8.66631 2.47935 8.80839 2.4118 8.96005 2.40144C9.11172 2.39108 9.26166 2.43867 9.37959 2.53461C9.49751 2.63054 9.57463 2.76766 9.59535 2.91826L9.60095 2.99986V5.55026L13.5769 1.57586C13.6894 1.4635 13.8419 1.40039 14.0009 1.40039C14.16 1.40039 14.3124 1.4635 14.4249 1.57586Z" fill="black"/>
</svg>
