<svg width="24" height="24" viewBox="0 0 24 24" fill="none" xmlns="http://www.w3.org/2000/svg">
<g id="icon/nav/experience">
<path id="Vector" d="M12.3214 2.01953C12.439 1.99609 12.5605 1.99609 12.6781 2.01953L20.2674 3.58203C20.6924 3.66797 20.9997 4.05469 20.9997 4.5C20.9997 4.94531 20.6924 5.33203 20.2674 5.41797L17.3569 6.01953V8.25C17.3569 11.0117 15.1825 13.25 12.4997 13.25C9.81692 13.25 7.64259 11.0117 7.64259 8.25V6.01953L5.82116 5.64453V8.1875L6.41692 11.25C6.45108 11.4336 6.40554 11.625 6.2917 11.7695C6.17786 11.9141 6.00331 12 5.82116 12H4.60688C4.42474 12 4.25398 11.918 4.13634 11.7695C4.01871 11.6211 3.97317 11.4336 4.01112 11.25L4.60688 8.1875V5.38281C4.24639 5.25391 3.99974 4.90234 3.99974 4.5C3.99974 4.05469 4.3071 3.66797 4.7321 3.58203L12.3214 2.01953ZM8.24594 14.8008C8.64438 14.668 9.07317 14.8164 9.36157 15.1328L12.0558 18.082C12.2948 18.3438 12.7009 18.3438 12.9399 18.082L15.6341 15.1328C15.9225 14.8164 16.3513 14.668 16.7497 14.8008C19.2163 15.6172 20.9997 17.9922 20.9997 20.8008C20.9997 21.4648 20.4761 22 19.8348 22H5.16469C4.5234 22 3.99974 21.4609 3.99974 20.8008C3.99974 17.9922 5.78322 15.6172 8.24594 14.8008Z" fill="black"/>
</g>
</svg>
