<svg width="33" height="32" viewBox="0 0 33 32" fill="none" xmlns="http://www.w3.org/2000/svg">
<path d="M17.6806 14.8148C17.6806 14.4632 17.7843 14.1195 17.9786 13.8271C18.1729 13.5348 18.449 13.3069 18.7721 13.1724C19.0951 13.0378 19.4506 13.0026 19.7936 13.0712C20.1366 13.1398 20.4516 13.3091 20.6989 13.5577C20.9462 13.8064 21.1146 14.1231 21.1828 14.468C21.251 14.8128 21.216 15.1703 21.0822 15.4951C20.9483 15.82 20.7217 16.0976 20.431 16.293C20.1402 16.4883 19.7984 16.5926 19.4487 16.5926C18.9798 16.5926 18.5301 16.4053 18.1985 16.0719C17.8669 15.7385 17.6806 15.2863 17.6806 14.8148ZM30.6169 10.2785C30.4129 13.2754 29.086 16.083 26.9038 18.1347C24.7217 20.1864 21.8468 21.3295 18.8593 21.3333H14.1445C13.6756 21.3333 13.2259 21.5206 12.8943 21.854C12.5627 22.1874 12.3764 22.6396 12.3764 23.1111C12.3764 23.5826 12.5627 24.0348 12.8943 24.3682C13.2259 24.7016 13.6756 24.8889 14.1445 24.8889H22.3955C22.7081 24.8889 23.0079 25.0138 23.2289 25.236C23.45 25.4583 23.5742 25.7597 23.5742 26.0741C23.5742 26.3884 23.45 26.6899 23.2289 26.9121C23.0079 27.1344 22.7081 27.2593 22.3955 27.2593H15.3232V29.6296H20.038C20.3507 29.6296 20.6505 29.7545 20.8715 29.9768C21.0926 30.199 21.2167 30.5005 21.2167 30.8148C21.2167 31.1291 21.0926 31.4306 20.8715 31.6529C20.6505 31.8751 20.3507 32 20.038 32H11.7871C8.66095 32 5.66286 30.7513 3.45236 28.5287C1.24185 26.306 0 23.2915 0 20.1481C0 17.0048 1.24185 13.9903 3.45236 11.7676C5.66286 9.54497 8.66095 8.2963 11.7871 8.2963H28.8784C29.3473 8.2963 29.797 8.109 30.1286 7.7756C30.4601 7.4422 30.6464 6.99001 30.6464 6.51852C30.6464 6.04702 30.4601 5.59484 30.1286 5.26144C29.797 4.92804 29.3473 4.74074 28.8784 4.74074H16.5019C15.5641 4.74074 14.6646 4.36614 14.0015 3.69934C13.3383 3.03255 12.9658 2.12818 12.9658 1.18519C12.9658 0.870855 13.09 0.569398 13.311 0.347133C13.5321 0.124867 13.8319 0 14.1445 0C14.4571 0 14.7569 0.124867 14.978 0.347133C15.199 0.569398 15.3232 0.870855 15.3232 1.18519C15.3232 1.49952 15.4474 1.80097 15.6684 2.02324C15.8895 2.2455 16.1893 2.37037 16.5019 2.37037H28.8784C29.8171 2.37125 30.7275 2.69404 31.4592 3.28544C32.1909 3.87684 32.7001 4.70147 32.9027 5.62316C33.1054 6.54484 32.9893 7.50846 32.5737 8.35486C32.1581 9.20127 31.4679 9.87984 30.6169 10.2785ZM5.12738 26.8578L10.022 23.3422V23.1111C10.0211 22.7367 10.0707 22.364 10.1693 22.003L2.50475 18.4993C2.2382 20.0024 2.33811 21.548 2.79591 23.0038C3.25371 24.4596 4.05574 25.782 5.13327 26.8578H5.12738ZM10.8736 25.643L7.08993 28.3644C8.51765 29.1944 10.1379 29.6308 11.7871 29.6296H12.9658V27.0859C12.1377 26.8356 11.4082 26.331 10.8795 25.643H10.8736ZM12.9658 19.1363V10.6667H11.7871C9.97849 10.6687 8.20855 11.1931 6.68783 12.1775C5.16711 13.1618 3.95962 14.5647 3.20903 16.2193L11.4408 19.9807C11.8836 19.5934 12.4035 19.3055 12.9658 19.1363ZM28.2153 10.6667H15.3232V18.963H18.8593C21.1553 18.9602 23.3717 18.1164 25.0937 16.5894C26.8158 15.0624 27.9255 12.9568 28.2153 10.6667Z" fill="black"/>
</svg>
