<svg width="35" height="35" viewBox="0 0 35 35" fill="none" xmlns="http://www.w3.org/2000/svg">
<path d="M16.1995 1.80671C16.1667 1.80671 16.1448 1.82858 16.1119 1.82858L15.9585 1.90535L6.5129 5.82829C5.93212 6.09134 5.40623 6.409 4.90194 6.77062C4.90194 6.77062 4.88007 6.77063 4.88007 6.80344C4.63903 7.01166 4.40907 7.25276 4.20078 7.51574C3.95975 7.85549 3.75152 8.24992 3.58719 8.66623C3.49137 9.04687 3.43265 9.4359 3.41185 9.82786V9.95932C3.41185 10.2772 3.4556 10.562 3.56524 10.8579C3.58712 10.54 3.67476 10.2003 3.80628 9.90449C3.95968 9.54287 4.22259 9.22514 4.56233 8.9841C4.77056 8.85258 5.01166 8.72112 5.25276 8.64436C5.5705 8.56779 5.87729 8.51297 6.22791 8.45814C6.75394 8.40346 7.27996 8.38145 7.75109 8.3595C8.37562 8.3595 8.98908 8.38138 9.6467 8.40325C10.4356 8.43606 11.1916 8.53478 11.9039 8.66623C12.4628 8.75394 12.9888 8.85258 13.5586 8.96209L13.2956 8.56766L13.0107 7.96507C12.934 7.72396 12.8791 7.46099 12.8791 7.21995V7.14312C12.901 6.88014 12.956 6.61716 13.0874 6.35425L13.6682 5.56524L16.298 2.14646C16.3527 2.12458 16.3527 2.06976 16.3527 2.015C16.3527 1.96011 16.3527 1.90535 16.298 1.86146C16.2761 1.82865 16.2212 1.80664 16.1994 1.80664L16.1995 1.80671ZM2.13093 9.89417C1.9994 10.1243 1.86959 10.3631 1.76001 10.5933C1.60631 10.9869 1.4916 11.3947 1.41753 11.8108C1.39565 12.019 1.36523 12.2589 1.36523 12.4671C1.36523 12.6534 1.39859 12.8069 1.39859 12.9712C1.47536 13.4424 1.55063 13.8931 1.66021 14.3313C1.94513 15.3066 2.39589 16.2054 3.02056 16.9614C3.3711 17.3888 3.73218 17.7822 4.10474 18.122C4.46662 18.4365 4.83446 18.7441 5.20806 19.0445C5.65738 19.3843 6.12817 19.68 6.54448 19.9101C7.18009 20.2827 7.84174 20.6216 8.49922 20.9613C10.888 22.2324 13.4373 23.1182 16.0233 23.5675C17.7327 23.8085 19.4445 24.0181 21.1978 24.1715C21.1978 24.5222 21.2191 24.8828 21.2739 25.2225C21.3287 25.6498 21.4281 26.0979 21.5924 26.4924C21.7458 26.9306 21.9335 27.3582 22.1965 27.7526C22.4814 28.1691 22.8178 28.5453 23.1904 28.9178C23.6068 29.2795 24.058 29.5947 24.584 29.8359C24.9784 30.0112 25.4045 30.1187 25.8537 30.1735C25.9853 30.1735 26.1171 30.1972 26.2485 30.1972C26.3253 30.1972 26.4 30.1735 26.4767 30.1735L33.5347 29.6694H33.5585C33.5803 29.6694 33.6345 29.6483 33.6345 29.5934C33.6345 29.5387 33.578 29.5168 33.5012 29.484C33.2383 29.4071 32.9554 29.3082 32.6595 29.1986C32.3526 29.089 32.0009 28.9614 31.6941 28.8847C31.2448 28.7313 30.7733 28.5648 30.2912 28.4661C29.8121 28.3541 29.33 28.2558 28.8454 28.1713C28.5275 28.1494 28.1881 28.0957 27.8703 28.019C27.8265 27.9972 27.7705 27.9387 27.7705 27.862C27.7705 27.862 27.7724 27.8317 27.7944 27.8098C27.7944 27.777 27.8276 27.7526 27.8276 27.7526C27.8276 27.7308 27.8465 27.7332 27.8465 27.7004C27.9233 27.6457 28.0362 27.592 28.1129 27.5482C28.2992 27.4386 28.4846 27.3587 28.6599 27.282C29.1092 27.0628 29.5807 26.8876 30.0628 26.6683C30.2711 26.5916 30.4776 26.5168 30.6859 26.4401C30.9819 26.3306 31.2988 26.253 31.7371 26.1215C31.8247 26.0996 31.901 26.0672 31.9558 26.0454C32.1393 25.9883 32.3232 25.9328 32.5075 25.8788C32.1349 25.3091 31.6642 24.752 31.1711 24.2808L30.1914 23.3392C29.8516 23.0433 29.5359 22.7798 29.2401 22.5496C28.747 22.1991 28.2659 21.8597 27.8276 21.5748C26.9666 21.0043 26.069 20.4911 25.1406 20.0386C24.6694 19.8083 24.1881 19.6024 23.4759 19.3394C22.7965 19.0984 22.1411 18.8566 22.2726 18.9113C21.6699 18.725 21.0348 18.5478 20.4322 18.3834L18.4677 13.1043C17.9637 13.3674 17.438 13.6286 16.9886 13.8369C16.5942 14.0231 16.2018 14.1245 15.7854 14.1793C15.2813 14.2889 14.7866 14.2863 14.2826 14.2315L7.89533 13.7083L9.62646 15.7772C9.68129 15.8649 9.75908 15.9626 9.83564 16.0721C9.89047 16.127 9.88801 16.1699 9.88801 16.2576C9.86613 16.3343 9.81213 16.3909 9.70262 16.3909C9.39568 16.4128 9.0787 16.3904 8.7609 16.3574C8.31164 16.3027 7.85992 16.2274 7.44361 16.0959C7.07105 16.0192 6.73391 15.8879 6.41617 15.7345C5.99973 15.5701 5.56968 15.3621 5.20812 15.121C4.86838 14.9129 4.52111 14.6804 4.21418 14.4172C3.8635 14.1542 3.5541 13.8598 3.25824 13.542C3.07196 13.3338 2.88842 13.0727 2.73502 12.8097C2.54874 12.4481 2.39274 12.0721 2.28316 11.6777C2.20646 11.2504 2.13059 10.8331 2.09777 10.4934C2.13059 10.3071 2.13093 10.1243 2.13093 9.89417ZM1.4081 16.9051L1.48466 17.5406C1.80253 19.5896 2.56952 21.5622 3.69827 23.3262C4.46526 24.5426 5.44055 25.5616 6.56923 26.3507L7.17188 26.7779L8.37706 27.534C11.0179 29.09 13.9328 30.12 16.99 30.5693L19.116 30.7446L21.2855 30.8761L23.5757 30.8542C22.9729 30.4817 22.425 30.0433 21.9428 29.5392L21.4717 28.9913C21.0773 28.4873 20.7594 27.9613 20.5512 27.3805C20.4526 27.0079 20.3649 26.6683 20.2882 26.3067L20.1566 25.463L17.8775 25.2219L16.0913 24.9919L14.8861 24.8055C14.1957 24.6741 13.5164 24.4878 12.826 24.2796L10.6233 23.4908L8.91395 22.7237L7.17175 21.8579L5.53898 20.9594L4.2569 20.0938L2.62435 18.5708L1.4081 16.905V16.9051ZM28.2888 23.2156C28.7819 23.2156 29.1877 23.6343 29.1877 24.1383C29.1877 24.6534 28.7819 25.0609 28.2888 25.0609C27.7957 25.0609 27.39 24.6534 27.39 24.1383C27.39 23.6344 27.7957 23.2157 28.2888 23.2157V23.2156ZM5.58868 29.0729C6.5639 29.7304 7.48429 30.4426 8.32811 31.2096C9.06229 31.8342 9.71971 32.5245 10.3772 33.193C10.5635 33.193 10.7169 33.1381 10.8483 33.0943C11.4291 32.8313 11.9551 32.5464 12.4811 32.2286C12.9852 31.9438 13.4235 31.6042 13.796 31.2097C13.5112 31.1001 13.2153 31.0015 12.9303 30.9139C12.218 30.7385 11.5388 30.4974 10.8704 30.2016C10.3773 29.9933 9.90598 29.7634 9.45673 29.5003C9.4019 29.5222 9.32527 29.5222 9.27045 29.5222C8.95271 29.5222 8.63491 29.5002 8.32811 29.4454C7.40766 29.3687 6.4872 29.2372 5.58868 29.0728V29.0729Z" fill="black"/>
</svg>
