<svg width="14" height="13" viewBox="0 0 14 13" fill="none" xmlns="http://www.w3.org/2000/svg">
<path d="M7.58342 0.609375V0.875977C7.73897 0.906445 7.88967 0.944531 8.02578 0.982617C8.3369 1.06895 8.52162 1.4041 8.43898 1.7291C8.35634 2.0541 8.0355 2.24707 7.72439 2.16074C7.45946 2.08711 7.21154 2.03633 6.99035 2.03379C6.81292 2.03125 6.63306 2.07695 6.51882 2.14551C6.46778 2.17852 6.44347 2.20645 6.43375 2.22168C6.42646 2.23438 6.41674 2.25215 6.41674 2.29277C6.41674 2.30039 6.41674 2.30547 6.41674 2.30801C6.4216 2.31309 6.43861 2.33848 6.49695 2.37402C6.63792 2.46289 6.84695 2.53145 7.16293 2.63047L7.1848 2.63809C7.4546 2.72187 7.81432 2.83613 8.10599 3.02656C8.43898 3.24492 8.74037 3.60801 8.74766 4.1666C8.75496 4.73789 8.47058 5.1543 8.0987 5.39805C7.93585 5.50215 7.76085 5.57578 7.58099 5.62148V5.89062C7.58099 6.22832 7.32091 6.5 6.99765 6.5C6.67438 6.5 6.41431 6.22832 6.41431 5.89062V5.60117C6.1834 5.54277 5.97194 5.4666 5.79208 5.40313C5.74103 5.38535 5.69242 5.36758 5.64624 5.35234C5.33999 5.2457 5.17471 4.90039 5.27679 4.58047C5.37888 4.26055 5.70944 4.08789 6.01569 4.19453C6.07889 4.21738 6.13722 4.2377 6.19312 4.25801C6.52368 4.3748 6.76188 4.45859 7.01709 4.46875C7.21154 4.47637 7.38411 4.42812 7.48376 4.36465C7.52994 4.33418 7.55182 4.30879 7.56154 4.29102C7.57126 4.27578 7.58342 4.24531 7.58099 4.18691V4.18184C7.58099 4.15645 7.58099 4.12852 7.48376 4.06504C7.34522 3.97363 7.13619 3.90254 6.82507 3.80352L6.77889 3.78828C6.51639 3.70703 6.17125 3.59785 5.89416 3.42266C5.56603 3.21699 5.25006 2.86406 5.24763 2.30293C5.2452 1.72148 5.56117 1.32285 5.9209 1.09941C6.07646 1.00293 6.24416 0.936914 6.41188 0.891211V0.609375C6.41188 0.27168 6.67195 0 6.99521 0C7.31848 0 7.57855 0.27168 7.57855 0.609375H7.58342ZM13.8106 8.53887C14.129 8.99082 14.0366 9.62559 13.604 9.9582L10.5269 12.3271C9.95809 12.7639 9.27267 13 8.56537 13H4.66672H0.777786C0.347573 13 0 12.6369 0 12.1875V10.5625C0 10.1131 0.347573 9.75 0.777786 9.75H1.67224L2.76357 8.83594C3.31531 8.37383 4.00074 8.125 4.70804 8.125H6.61118H7.00008H8.55565C8.98586 8.125 9.33344 8.48809 9.33344 8.9375C9.33344 9.38691 8.98586 9.75 8.55565 9.75H7.00008H6.61118C6.39729 9.75 6.22229 9.93281 6.22229 10.1562C6.22229 10.3797 6.39729 10.5625 6.61118 10.5625H9.54247L12.4519 8.32305C12.8845 7.99043 13.4922 8.08691 13.8106 8.53887ZM4.70561 9.75H4.68373C4.69102 9.75 4.69832 9.75 4.70561 9.75Z" fill="black"/>
</svg>
