<svg width="17" height="14" viewBox="0 0 17 14" fill="none" xmlns="http://www.w3.org/2000/svg">
<path d="M10.245 4.93242C10.245 5.40935 9.82589 5.79957 9.31364 5.79957H0.931364C0.419114 5.79957 0 5.40935 0 4.93242C0 4.45549 0.419114 4.06527 0.931364 4.06527H9.31364C9.82589 4.06527 10.245 4.45549 10.245 4.93242ZM0 1.46383C0 1.94076 0.419114 2.33098 0.931364 2.33098H9.31364C9.82589 2.33098 10.245 1.94076 10.245 1.46383C10.245 0.986896 9.82589 0.59668 9.31364 0.59668H0.931364C0.419114 0.59668 0 0.986896 0 1.46383ZM6.51955 8.40102C6.51955 7.92408 6.10043 7.53387 5.58818 7.53387H0.931364C0.419114 7.53387 0 7.92408 0 8.40102C0 8.87795 0.419114 9.26816 0.931364 9.26816H5.58818C6.10043 9.26816 6.51955 8.87795 6.51955 8.40102ZM13.9798 6.55399L14.641 5.93831C14.7272 5.85793 14.8296 5.79415 14.9422 5.75064C15.0549 5.70712 15.1757 5.68472 15.2977 5.68472C15.4196 5.68472 15.5404 5.70712 15.6531 5.75064C15.7658 5.79415 15.8681 5.85793 15.9543 5.93831L16.6155 6.55399C16.9788 6.89218 16.9788 7.43848 16.6155 7.77667L15.9543 8.39234L13.9798 6.55399ZM13.3185 7.16966L8.51267 11.6442C8.42884 11.7222 8.38228 11.8263 8.38228 11.9477V13.1703C8.38228 13.4131 8.58718 13.6039 8.84796 13.6039H10.1612C10.2823 13.6039 10.4033 13.5605 10.4872 13.4738L15.293 8.99935L13.3185 7.16966Z" fill="#030229"/>
</svg>
