<svg width="16" height="18" viewBox="0 0 16 18" fill="none" xmlns="http://www.w3.org/2000/svg">
<path fill-rule="evenodd" clipRule="evenodd" d="M6.72 0C5.94592 0 5.30025 0.552137 5.152 1.28571H4.16C3.74201 1.28571 3.3864 1.55405 3.25462 1.92857H0.96C0.429808 1.92857 0 2.36028 0 2.89286V17.0357C0 17.5683 0.429808 18 0.96 18H12.48C13.0102 18 13.44 17.5683 13.44 17.0357V11.4741L15.7643 9.13937C16.0786 8.82376 16.0786 8.31208 15.7643 7.99647L15.0791 7.30813C14.7649 6.99252 14.2554 6.99252 13.9412 7.30813L13.44 7.81161V2.89286C13.44 2.36028 13.0102 1.92857 12.48 1.92857H10.1854C10.0536 1.55405 9.69798 1.28571 9.28 1.28571H8.288C8.13974 0.552137 7.49408 0 6.72 0ZM12.8 8.45447V2.89286C12.8 2.71533 12.6567 2.57143 12.48 2.57143H10.24V3.21429H11.2C11.7302 3.21429 12.16 3.646 12.16 4.17857V9.09733L12.8 8.45447ZM11.52 9.74019V4.17857C11.52 4.00105 11.3767 3.85714 11.2 3.85714H9.9207H9.92H2.24C2.06326 3.85714 1.92 4.00105 1.92 4.17857V15.75C1.92 15.9275 2.06326 16.0714 2.24 16.0714H11.2C11.3767 16.0714 11.52 15.9275 11.52 15.75V13.4027L10.1108 14.8182C10.0714 14.8577 10.0225 14.8863 9.96873 14.901L8.08419 15.4173C7.9734 15.4476 7.85494 15.416 7.77372 15.3344C7.69254 15.2529 7.66105 15.1339 7.69129 15.0226L8.20524 13.1297C8.2199 13.0757 8.24832 13.0265 8.28768 12.9869L11.52 9.74019ZM12.16 12.7598V15.75C12.16 16.2826 11.7302 16.7143 11.2 16.7143H2.24C1.70979 16.7143 1.28 16.2826 1.28 15.75V4.17857C1.28 3.646 1.70979 3.21429 2.24 3.21429H3.2V2.57143H0.96C0.78327 2.57143 0.64 2.71533 0.64 2.89286V17.0357C0.64 17.2132 0.78327 17.3571 0.96 17.3571H12.48C12.6567 17.3571 12.8 17.2132 12.8 17.0357V12.117L12.16 12.7598ZM5.76 1.60714C5.76 1.07458 6.18979 0.642857 6.72 0.642857C7.2502 0.642857 7.68 1.07458 7.68 1.60714C7.68 1.78466 7.82326 1.92857 8 1.92857H9.28C9.45673 1.92857 9.6 2.07247 9.6 2.25V3.21429H3.84V2.25C3.84 2.07247 3.98326 1.92857 4.16 1.92857H5.44C5.61673 1.92857 5.76 1.78466 5.76 1.60714ZM14.3938 7.76269C14.458 7.69815 14.5623 7.69815 14.6265 7.76269L15.3118 8.45103C15.3761 8.51561 15.3761 8.62026 15.3118 8.68481L15.0241 8.97377L14.1061 8.05166L14.3938 7.76269ZM13.6536 8.50625L14.5716 9.42834L14.5102 9.49005L13.5922 8.56794L13.6536 8.50625ZM13.1396 9.0225L14.0576 9.94461L9.88451 14.1363L8.96652 13.2142L13.1396 9.0225ZM8.6776 13.8332L9.26835 14.4265L8.45606 14.649L8.6776 13.8332Z" fill="#222222"/>
</svg>
