<svg width="25" height="25" viewBox="0 0 25 25" fill="none" xmlns="http://www.w3.org/2000/svg">
<path d="M20.2679 17.1916C19.0641 15.7183 18.2143 14.9683 18.2143 10.9066C18.2143 7.18704 16.3149 5.86189 14.7516 5.21829C14.544 5.13298 14.3485 4.93704 14.2852 4.72376C14.011 3.79048 13.2423 2.96829 12.2204 2.96829C11.1985 2.96829 10.4293 3.79095 10.1579 4.7247C10.0946 4.94032 9.89914 5.13298 9.69148 5.21829C8.12632 5.86282 6.22882 7.18329 6.22882 10.9066C6.22648 14.9683 5.37664 15.7183 4.17289 17.1916C3.67414 17.8019 4.11101 18.7183 4.98335 18.7183H19.4621C20.3298 18.7183 20.7638 17.7991 20.2679 17.1916Z" stroke="#030229" stroke-width="1.00189" stroke-linecap="round" stroke-linejoin="round"/>
<path d="M15.2211 18.7183V19.4684C15.2211 20.2641 14.905 21.0273 14.3423 21.59C13.7796 22.1527 13.0165 22.4688 12.2207 22.4688C11.4249 22.4688 10.6618 22.1527 10.0991 21.59C9.53639 21.0273 9.22028 20.2641 9.22028 19.4684V18.7183" stroke="#030229" stroke-width="1.00189" stroke-linecap="round" stroke-linejoin="round"/>
</svg>
