<svg width="25" height="25" viewBox="0 0 25 25" fill="none" xmlns="http://www.w3.org/2000/svg">
<g id="people-circle">
<path id="Vector" d="M12.917 22.0615C7.5409 22.0615 3.16699 17.6876 3.16699 12.3115C3.16699 6.93543 7.5409 2.56152 12.917 2.56152C18.2931 2.56152 22.667 6.93543 22.667 12.3115C22.667 17.6876 18.2931 22.0615 12.917 22.0615ZM12.917 4.06152C8.37012 4.06152 4.66699 7.76465 4.66699 12.3115C4.66699 16.8584 8.37012 20.5615 12.917 20.5615C17.4639 20.5615 21.167 16.8607 21.167 12.3115C21.167 7.76231 17.4662 4.06152 12.917 4.06152Z" fill="black"/>
<path id="Vector_2" d="M16.0916 14.001C15.2759 14.001 14.4878 13.6391 13.8722 12.9823C13.2634 12.3218 12.8993 11.4726 12.8408 10.5763C12.7719 9.60583 13.0696 8.71274 13.6791 8.06249C14.2885 7.41224 15.1404 7.0625 16.0916 7.0625C17.0358 7.0625 17.8904 7.41974 18.498 8.06858C19.1056 8.71742 19.4108 9.61568 19.3419 10.5772C19.2823 11.473 18.9184 12.3216 18.3105 12.9823C17.6945 13.6391 16.9069 14.001 16.0916 14.001Z" fill="black"/>
<path id="Vector_3" d="M8.59816 14.1587C7.20296 14.1587 5.97607 12.869 5.86355 11.2835C5.80589 10.4715 6.05811 9.7209 6.57475 9.17004C7.09139 8.61918 7.80399 8.32617 8.59769 8.32617C9.3914 8.32617 10.1035 8.62809 10.6169 9.17661C11.1302 9.72512 11.3904 10.4809 11.3318 11.2863C11.2174 12.8695 9.99102 14.1587 8.59816 14.1587Z" fill="black"/>
<path id="Vector_4" d="M20.6237 16.9661C20.5492 16.7458 20.3678 16.5109 20.004 16.2883C18.9043 15.6165 17.5515 15.2612 16.0909 15.2612C14.6579 15.2612 13.2676 15.6315 12.1754 16.3042C10.945 17.0622 10.1181 18.1675 9.78481 19.5001C9.70606 19.8137 9.59121 20.3973 9.71403 20.724C11.6849 21.4735 13.8562 21.5079 15.8498 20.8212C17.8434 20.1345 19.5329 18.7703 20.6242 16.9661H20.6237Z" fill="black"/>
<path id="Vector_5" d="M8.58848 19.1263C8.91994 17.8038 9.62551 16.7011 10.7202 15.8094C10.7719 15.7667 10.8113 15.7109 10.8341 15.6478C10.857 15.5848 10.8625 15.5167 10.8501 15.4508C10.8377 15.3848 10.8078 15.3234 10.7636 15.273C10.7194 15.2225 10.6625 15.1848 10.5988 15.1638C10.0362 14.9843 9.39391 14.8882 8.59739 14.8882C7.48067 14.8882 6.29503 15.1906 5.40287 15.74C5.14971 15.8961 4.90124 15.9561 4.70996 16.0096C5.47792 17.7069 6.75147 19.1255 8.35642 20.0714L8.44034 20.0649C8.45869 19.7479 8.50831 19.4335 8.58848 19.1263Z" fill="black"/>
</g>
</svg>
