<svg width="14" height="14" viewBox="0 0 14 14" fill="none" xmlns="http://www.w3.org/2000/svg">
<g clip-path="url(#clip0_423_54291)">
<path d="M12.2254 2.35703C10.9457 0.913281 9.08359 0 7 0C3.13359 0 0 3.13359 0 7H1.75C1.75 4.09883 4.09883 1.75 7 1.75C8.59961 1.75 10.0188 2.47461 10.9785 3.60391L9.33242 5.25H14V0.582422L12.2254 2.35703ZM7 12.25C5.40039 12.25 3.98125 11.5254 3.02148 10.3961L4.66758 8.75H0V13.4176L1.77461 11.643C3.0543 13.0867 4.91914 14 7 14C10.8664 14 14 10.8664 14 7H12.25C12.25 9.90117 9.90117 12.25 7 12.25Z" fill="#474747"/>
</g>
<defs>
<clipPath id="clip0_423_54291">
<rect width="14" height="14" fill="white"/>
</clipPath>
</defs>
</svg>
