<svg width="25" height="25" viewBox="0 0 25 25" fill="none" xmlns="http://www.w3.org/2000/svg">
<g id="sparkles" clip-path="url(#clip0_975_13224)">
<path id="Vector" d="M12.7159 13.2301L10.6759 7.92667C10.6453 7.84708 10.5913 7.77864 10.521 7.73036C10.4507 7.68209 10.3674 7.65625 10.2822 7.65625C10.1969 7.65625 10.1136 7.68209 10.0433 7.73036C9.97305 7.77864 9.91904 7.84708 9.88843 7.92667L7.84843 13.2301C7.82724 13.2852 7.79472 13.3353 7.75297 13.377C7.71123 13.4187 7.66118 13.4513 7.60608 13.4724L2.30264 15.5124C2.22306 15.5431 2.15462 15.5971 2.10634 15.6674C2.05807 15.7377 2.03223 15.8209 2.03223 15.9062C2.03223 15.9915 2.05807 16.0747 2.10634 16.145C2.15462 16.2153 2.22306 16.2693 2.30264 16.2999L7.60608 18.3399C7.66118 18.3611 7.71123 18.3937 7.75297 18.4354C7.79472 18.4771 7.82724 18.5272 7.84843 18.5823L9.88843 23.8857C9.91904 23.9653 9.97305 24.0338 10.0433 24.082C10.1136 24.1303 10.1969 24.1561 10.2822 24.1561C10.3674 24.1561 10.4507 24.1303 10.521 24.082C10.5913 24.0338 10.6453 23.9653 10.6759 23.8857L12.7159 18.5823C12.7371 18.5272 12.7696 18.4771 12.8114 18.4354C12.8531 18.3937 12.9032 18.3611 12.9583 18.3399L18.2617 16.2999C18.3413 16.2693 18.4097 16.2153 18.458 16.145C18.5063 16.0747 18.5321 15.9915 18.5321 15.9062C18.5321 15.8209 18.5063 15.7377 18.458 15.6674C18.4097 15.5971 18.3413 15.5431 18.2617 15.5124L12.9583 13.4724C12.9032 13.4513 12.8531 13.4187 12.8114 13.377C12.7696 13.3353 12.7371 13.2852 12.7159 13.2301Z" stroke="black" strokeWidth="1.00189" strokeLinecap="round" strokeLinejoin="round"/>
<path id="Vector_2" d="M5.59534 4.09507L4.65771 1.65723L3.72007 4.09507L1.28223 5.03271L3.72007 5.97034L4.65771 8.40819L5.59534 5.97034L8.03319 5.03271L5.59534 4.09507Z" stroke="black" strokeWidth="1.00189" strokeLinecap="round" strokeLinejoin="round"/>
<path id="Vector_3" d="M20.5322 6.40753L19.2819 3.15723L18.0316 6.40753L14.7812 7.65787L18.0316 8.9082L19.2819 12.1585L20.5322 8.9082L23.7825 7.65787L20.5322 6.40753Z" stroke="black" strokeWidth="1.00189" strokeLinecap="round" strokeLinejoin="round"/>
</g>
<defs>
<clipPath id="clip0_975_13224">
<rect width="24" height="24" fill="white" transform="translate(0.532227 0.907227)"/>
</clipPath>
</defs>
</svg>
