<svg width="16" height="16" viewBox="0 0 16 16" fill="none" xmlns="http://www.w3.org/2000/svg">
<g clip-path="url(#clip0_423_54282)">
<path d="M8.12247 8.21493L6.76247 4.6793C6.74206 4.62624 6.70605 4.58062 6.65919 4.54843C6.61233 4.51625 6.55681 4.49902 6.49997 4.49902C6.44312 4.49902 6.3876 4.51625 6.34074 4.54843C6.29388 4.58062 6.25787 4.62624 6.23747 4.6793L4.87747 8.21493C4.86334 8.25166 4.84166 8.28502 4.81383 8.31285C4.786 8.34068 4.75264 8.36236 4.7159 8.37649L1.18028 9.73649C1.12722 9.7569 1.08159 9.79291 1.04941 9.83977C1.01723 9.88663 1 9.94214 1 9.99899C1 10.0558 1.01723 10.1113 1.04941 10.1582C1.08159 10.2051 1.12722 10.2411 1.18028 10.2615L4.7159 11.6215C4.75264 11.6356 4.786 11.6573 4.81383 11.6851C4.84166 11.713 4.86334 11.7463 4.87747 11.7831L6.23747 15.3187C6.25787 15.3717 6.29388 15.4174 6.34074 15.4495C6.3876 15.4817 6.44312 15.499 6.49997 15.499C6.55681 15.499 6.61233 15.4817 6.65919 15.4495C6.70605 15.4174 6.74206 15.3717 6.76247 15.3187L8.12247 11.7831C8.13659 11.7463 8.15827 11.713 8.1861 11.6851C8.21393 11.6573 8.24729 11.6356 8.28403 11.6215L11.8197 10.2615C11.8727 10.2411 11.9183 10.2051 11.9505 10.1582C11.9827 10.1113 11.9999 10.0558 11.9999 9.99899C11.9999 9.94214 11.9827 9.88663 11.9505 9.83977C11.9183 9.79291 11.8727 9.7569 11.8197 9.73649L8.28403 8.37649C8.24729 8.36236 8.21393 8.34068 8.1861 8.31285C8.15827 8.28502 8.13659 8.25166 8.12247 8.21493Z" stroke="#474747" strokeWidth="1.00189" strokeLinecap="round" strokeLinejoin="round"/>
<path d="M3.37541 2.12523L2.75032 0.5L2.12523 2.12523L0.5 2.75032L2.12523 3.37541L2.75032 5.00064L3.37541 3.37541L5.00064 2.75032L3.37541 2.12523Z" stroke="#474747" strokeWidth="1.00189" strokeLinecap="round" strokeLinejoin="round"/>
<path d="M13.334 3.66687L12.5004 1.5L11.6669 3.66687L9.5 4.50043L11.6669 5.33398L12.5004 7.50086L13.334 5.33398L15.5009 4.50043L13.334 3.66687Z" stroke="#474747" strokeWidth="1.00189" strokeLinecap="round" strokeLinejoin="round"/>
</g>
<defs>
<clipPath id="clip0_423_54282">
<rect width="16" height="16" fill="white"/>
</clipPath>
</defs>
</svg>
