<svg width="17" height="16" viewBox="0 0 17 16" fill="none" xmlns="http://www.w3.org/2000/svg">
<path d="M13.3882 9.88947C13.1825 10.0894 13.088 10.3785 13.1349 10.662L13.8409 14.5802C13.9005 14.9123 13.7607 15.2484 13.4835 15.4404C13.2119 15.6394 12.8505 15.6633 12.5543 15.5041L9.0367 13.6644C8.91439 13.5991 8.77857 13.564 8.63958 13.5601H8.42435C8.34969 13.5712 8.27663 13.5951 8.20991 13.6317L4.69151 15.4802C4.51757 15.5678 4.32061 15.5988 4.12761 15.5678C3.65743 15.4786 3.34371 15.0294 3.42075 14.5556L4.12761 10.6373C4.17447 10.3514 4.07996 10.0607 3.87425 9.85762L1.00632 7.07023C0.766463 6.83689 0.683069 6.48647 0.792672 6.1703C0.899098 5.85493 1.17072 5.62477 1.49874 5.57301L5.44602 4.99881C5.74623 4.96775 6.00992 4.78458 6.14493 4.5138L7.88428 0.937984C7.92558 0.858344 7.97879 0.785076 8.04312 0.722957L8.1146 0.667209C8.15193 0.625797 8.19482 0.591552 8.24247 0.563678L8.32904 0.531822L8.46406 0.476074H8.79843C9.09706 0.507134 9.35994 0.686323 9.49734 0.953912L11.2597 4.5138C11.3868 4.77422 11.6338 4.955 11.9189 4.99881L15.8662 5.57301C16.1998 5.62079 16.4786 5.85175 16.589 6.1703C16.693 6.48966 16.6032 6.84007 16.3586 7.07023L13.3882 9.88947Z" fill="#FFD66B"/>
</svg>
